<svg xmlns="http://www.w3.org/2000/svg" xmlns:xlink="http://www.w3.org/1999/xlink" contentStyleType="text/css" height="498px" preserveAspectRatio="none" style="width:1608px;height:498px;background:#FFFFFF;" version="1.1" viewBox="0 0 1608 498" width="1608px" zoomAndPan="magnify"><defs/><g><!--class Scoreboard--><g id="elem_Scoreboard"><rect codeLine="1" fill="#F1F1F1" height="48" id="Scoreboard" rx="2.5" ry="2.5" style="stroke:#181818;stroke-width:0.5;" width="112.1924" x="566.5" y="7"/><ellipse cx="581.5" cy="23" fill="#ADD1B2" rx="11" ry="11" style="stroke:#181818;stroke-width:1;"/><path d="M584.4688,28.6406 Q583.8906,28.9375 583.25,29.0781 Q582.6094,29.2344 581.9063,29.2344 Q579.4063,29.2344 578.0781,27.5938 Q576.7656,25.9375 576.7656,22.8125 Q576.7656,19.6875 578.0781,18.0313 Q579.4063,16.375 581.9063,16.375 Q582.6094,16.375 583.25,16.5313 Q583.9063,16.6875 584.4688,16.9844 L584.4688,19.7031 Q583.8438,19.125 583.25,18.8594 Q582.6563,18.5781 582.0313,18.5781 Q580.6875,18.5781 580,19.6563 Q579.3125,20.7188 579.3125,22.8125 Q579.3125,24.9063 580,25.9844 Q580.6875,27.0469 582.0313,27.0469 Q582.6563,27.0469 583.25,26.7813 Q583.8438,26.5 584.4688,25.9219 L584.4688,28.6406 Z " fill="#000000"/><text fill="#000000" font-family="sans-serif" font-size="14" lengthAdjust="spacing" textLength="80.1924" x="595.5" y="27.8467">Scoreboard</text><line style="stroke:#181818;stroke-width:0.5;" x1="567.5" x2="677.6924" y1="39" y2="39"/><line style="stroke:#181818;stroke-width:0.5;" x1="567.5" x2="677.6924" y1="47" y2="47"/></g><!--class ScoreboardSet--><g id="elem_ScoreboardSet"><rect codeLine="2" fill="#F1F1F1" height="48" id="ScoreboardSet" rx="2.5" ry="2.5" style="stroke:#181818;stroke-width:0.5;" width="135.1816" x="555" y="116"/><ellipse cx="570" cy="132" fill="#ADD1B2" rx="11" ry="11" style="stroke:#181818;stroke-width:1;"/><path d="M572.9688,137.6406 Q572.3906,137.9375 571.75,138.0781 Q571.1094,138.2344 570.4063,138.2344 Q567.9063,138.2344 566.5781,136.5938 Q565.2656,134.9375 565.2656,131.8125 Q565.2656,128.6875 566.5781,127.0313 Q567.9063,125.375 570.4063,125.375 Q571.1094,125.375 571.75,125.5313 Q572.4063,125.6875 572.9688,125.9844 L572.9688,128.7031 Q572.3438,128.125 571.75,127.8594 Q571.1563,127.5781 570.5313,127.5781 Q569.1875,127.5781 568.5,128.6563 Q567.8125,129.7188 567.8125,131.8125 Q567.8125,133.9063 568.5,134.9844 Q569.1875,136.0469 570.5313,136.0469 Q571.1563,136.0469 571.75,135.7813 Q572.3438,135.5 572.9688,134.9219 L572.9688,137.6406 Z " fill="#000000"/><text fill="#000000" font-family="sans-serif" font-size="14" lengthAdjust="spacing" textLength="103.1816" x="584" y="136.8467">ScoreboardSet</text><line style="stroke:#181818;stroke-width:0.5;" x1="556" x2="689.1816" y1="148" y2="148"/><line style="stroke:#181818;stroke-width:0.5;" x1="556" x2="689.1816" y1="156" y2="156"/></g><!--class ScoreboardGame--><g id="elem_ScoreboardGame"><rect codeLine="3" fill="#F1F1F1" height="48" id="ScoreboardGame" rx="2.5" ry="2.5" style="stroke:#181818;stroke-width:0.5;" width="153.8711" x="954.5" y="116"/><ellipse cx="969.5" cy="132" fill="#ADD1B2" rx="11" ry="11" style="stroke:#181818;stroke-width:1;"/><path d="M972.4688,137.6406 Q971.8906,137.9375 971.25,138.0781 Q970.6094,138.2344 969.9063,138.2344 Q967.4063,138.2344 966.0781,136.5938 Q964.7656,134.9375 964.7656,131.8125 Q964.7656,128.6875 966.0781,127.0313 Q967.4063,125.375 969.9063,125.375 Q970.6094,125.375 971.25,125.5313 Q971.9063,125.6875 972.4688,125.9844 L972.4688,128.7031 Q971.8438,128.125 971.25,127.8594 Q970.6563,127.5781 970.0313,127.5781 Q968.6875,127.5781 968,128.6563 Q967.3125,129.7188 967.3125,131.8125 Q967.3125,133.9063 968,134.9844 Q968.6875,136.0469 970.0313,136.0469 Q970.6563,136.0469 971.25,135.7813 Q971.8438,135.5 972.4688,134.9219 L972.4688,137.6406 Z " fill="#000000"/><text fill="#000000" font-family="sans-serif" font-size="14" lengthAdjust="spacing" textLength="121.8711" x="983.5" y="136.8467">ScoreboardGame</text><line style="stroke:#181818;stroke-width:0.5;" x1="955.5" x2="1107.3711" y1="148" y2="148"/><line style="stroke:#181818;stroke-width:0.5;" x1="955.5" x2="1107.3711" y1="156" y2="156"/></g><!--class ScoreboardService--><g id="elem_ScoreboardService"><rect codeLine="4" fill="#F1F1F1" height="48" id="ScoreboardService" rx="2.5" ry="2.5" style="stroke:#181818;stroke-width:0.5;" width="163.9336" x="351.5" y="225"/><ellipse cx="366.5" cy="241" fill="#ADD1B2" rx="11" ry="11" style="stroke:#181818;stroke-width:1;"/><path d="M369.4688,246.6406 Q368.8906,246.9375 368.25,247.0781 Q367.6094,247.2344 366.9063,247.2344 Q364.4063,247.2344 363.0781,245.5938 Q361.7656,243.9375 361.7656,240.8125 Q361.7656,237.6875 363.0781,236.0313 Q364.4063,234.375 366.9063,234.375 Q367.6094,234.375 368.25,234.5313 Q368.9063,234.6875 369.4688,234.9844 L369.4688,237.7031 Q368.8438,237.125 368.25,236.8594 Q367.6563,236.5781 367.0313,236.5781 Q365.6875,236.5781 365,237.6563 Q364.3125,238.7188 364.3125,240.8125 Q364.3125,242.9063 365,243.9844 Q365.6875,245.0469 367.0313,245.0469 Q367.6563,245.0469 368.25,244.7813 Q368.8438,244.5 369.4688,243.9219 L369.4688,246.6406 Z " fill="#000000"/><text fill="#000000" font-family="sans-serif" font-size="14" lengthAdjust="spacing" textLength="131.9336" x="380.5" y="245.8467">ScoreboardService</text><line style="stroke:#181818;stroke-width:0.5;" x1="352.5" x2="514.4336" y1="257" y2="257"/><line style="stroke:#181818;stroke-width:0.5;" x1="352.5" x2="514.4336" y1="265" y2="265"/></g><!--class SetPointsPlayer--><g id="elem_SetPointsPlayer"><rect codeLine="6" fill="#F1F1F1" height="48" id="SetPointsPlayer" rx="2.5" ry="2.5" style="stroke:#181818;stroke-width:0.5;" width="141.1084" x="627" y="225"/><ellipse cx="642" cy="241" fill="#ADD1B2" rx="11" ry="11" style="stroke:#181818;stroke-width:1;"/><path d="M644.9688,246.6406 Q644.3906,246.9375 643.75,247.0781 Q643.1094,247.2344 642.4063,247.2344 Q639.9063,247.2344 638.5781,245.5938 Q637.2656,243.9375 637.2656,240.8125 Q637.2656,237.6875 638.5781,236.0313 Q639.9063,234.375 642.4063,234.375 Q643.1094,234.375 643.75,234.5313 Q644.4063,234.6875 644.9688,234.9844 L644.9688,237.7031 Q644.3438,237.125 643.75,236.8594 Q643.1563,236.5781 642.5313,236.5781 Q641.1875,236.5781 640.5,237.6563 Q639.8125,238.7188 639.8125,240.8125 Q639.8125,242.9063 640.5,243.9844 Q641.1875,245.0469 642.5313,245.0469 Q643.1563,245.0469 643.75,244.7813 Q644.3438,244.5 644.9688,243.9219 L644.9688,246.6406 Z " fill="#000000"/><text fill="#000000" font-family="sans-serif" font-size="14" lengthAdjust="spacing" textLength="109.1084" x="656" y="245.8467">SetPointsPlayer</text><line style="stroke:#181818;stroke-width:0.5;" x1="628" x2="767.1084" y1="257" y2="257"/><line style="stroke:#181818;stroke-width:0.5;" x1="628" x2="767.1084" y1="265" y2="265"/></g><!--class SetPointsPlayerGreen--><g id="elem_SetPointsPlayerGreen"><rect codeLine="7" fill="#F1F1F1" height="48" id="SetPointsPlayerGreen" rx="2.5" ry="2.5" style="stroke:#181818;stroke-width:0.5;" width="183.8125" x="605.5" y="334"/><ellipse cx="620.5" cy="350" fill="#ADD1B2" rx="11" ry="11" style="stroke:#181818;stroke-width:1;"/><path d="M623.4688,355.6406 Q622.8906,355.9375 622.25,356.0781 Q621.6094,356.2344 620.9063,356.2344 Q618.4063,356.2344 617.0781,354.5938 Q615.7656,352.9375 615.7656,349.8125 Q615.7656,346.6875 617.0781,345.0313 Q618.4063,343.375 620.9063,343.375 Q621.6094,343.375 622.25,343.5313 Q622.9063,343.6875 623.4688,343.9844 L623.4688,346.7031 Q622.8438,346.125 622.25,345.8594 Q621.6563,345.5781 621.0313,345.5781 Q619.6875,345.5781 619,346.6563 Q618.3125,347.7188 618.3125,349.8125 Q618.3125,351.9063 619,352.9844 Q619.6875,354.0469 621.0313,354.0469 Q621.6563,354.0469 622.25,353.7813 Q622.8438,353.5 623.4688,352.9219 L623.4688,355.6406 Z " fill="#000000"/><text fill="#000000" font-family="sans-serif" font-size="14" lengthAdjust="spacing" textLength="151.8125" x="634.5" y="354.8467">SetPointsPlayerGreen</text><line style="stroke:#181818;stroke-width:0.5;" x1="606.5" x2="788.3125" y1="366" y2="366"/><line style="stroke:#181818;stroke-width:0.5;" x1="606.5" x2="788.3125" y1="374" y2="374"/></g><!--class SetPointsPlayerRed--><g id="elem_SetPointsPlayerRed"><rect codeLine="8" fill="#F1F1F1" height="48" id="SetPointsPlayerRed" rx="2.5" ry="2.5" style="stroke:#181818;stroke-width:0.5;" width="168.3359" x="824.5" y="334"/><ellipse cx="839.5" cy="350" fill="#ADD1B2" rx="11" ry="11" style="stroke:#181818;stroke-width:1;"/><path d="M842.4688,355.6406 Q841.8906,355.9375 841.25,356.0781 Q840.6094,356.2344 839.9063,356.2344 Q837.4063,356.2344 836.0781,354.5938 Q834.7656,352.9375 834.7656,349.8125 Q834.7656,346.6875 836.0781,345.0313 Q837.4063,343.375 839.9063,343.375 Q840.6094,343.375 841.25,343.5313 Q841.9063,343.6875 842.4688,343.9844 L842.4688,346.7031 Q841.8438,346.125 841.25,345.8594 Q840.6563,345.5781 840.0313,345.5781 Q838.6875,345.5781 838,346.6563 Q837.3125,347.7188 837.3125,349.8125 Q837.3125,351.9063 838,352.9844 Q838.6875,354.0469 840.0313,354.0469 Q840.6563,354.0469 841.25,353.7813 Q841.8438,353.5 842.4688,352.9219 L842.4688,355.6406 Z " fill="#000000"/><text fill="#000000" font-family="sans-serif" font-size="14" lengthAdjust="spacing" textLength="136.3359" x="853.5" y="354.8467">SetPointsPlayerRed</text><line style="stroke:#181818;stroke-width:0.5;" x1="825.5" x2="991.8359" y1="366" y2="366"/><line style="stroke:#181818;stroke-width:0.5;" x1="825.5" x2="991.8359" y1="374" y2="374"/></g><!--class GamePointsPlayer--><g id="elem_GamePointsPlayer"><rect codeLine="9" fill="#F1F1F1" height="48" id="GamePointsPlayer" rx="2.5" ry="2.5" style="stroke:#181818;stroke-width:0.5;" width="159.7979" x="1004.5" y="225"/><ellipse cx="1019.5" cy="241" fill="#ADD1B2" rx="11" ry="11" style="stroke:#181818;stroke-width:1;"/><path d="M1022.4688,246.6406 Q1021.8906,246.9375 1021.25,247.0781 Q1020.6094,247.2344 1019.9063,247.2344 Q1017.4063,247.2344 1016.0781,245.5938 Q1014.7656,243.9375 1014.7656,240.8125 Q1014.7656,237.6875 1016.0781,236.0313 Q1017.4063,234.375 1019.9063,234.375 Q1020.6094,234.375 1021.25,234.5313 Q1021.9063,234.6875 1022.4688,234.9844 L1022.4688,237.7031 Q1021.8438,237.125 1021.25,236.8594 Q1020.6563,236.5781 1020.0313,236.5781 Q1018.6875,236.5781 1018,237.6563 Q1017.3125,238.7188 1017.3125,240.8125 Q1017.3125,242.9063 1018,243.9844 Q1018.6875,245.0469 1020.0313,245.0469 Q1020.6563,245.0469 1021.25,244.7813 Q1021.8438,244.5 1022.4688,243.9219 L1022.4688,246.6406 Z " fill="#000000"/><text fill="#000000" font-family="sans-serif" font-size="14" lengthAdjust="spacing" textLength="127.7979" x="1033.5" y="245.8467">GamePointsPlayer</text><line style="stroke:#181818;stroke-width:0.5;" x1="1005.5" x2="1163.2979" y1="257" y2="257"/><line style="stroke:#181818;stroke-width:0.5;" x1="1005.5" x2="1163.2979" y1="265" y2="265"/></g><!--class GamePointsPlayerGreen--><g id="elem_GamePointsPlayerGreen"><rect codeLine="10" fill="#F1F1F1" height="48" id="GamePointsPlayerGreen" rx="2.5" ry="2.5" style="stroke:#181818;stroke-width:0.5;" width="202.502" x="1176" y="334"/><ellipse cx="1191" cy="350" fill="#ADD1B2" rx="11" ry="11" style="stroke:#181818;stroke-width:1;"/><path d="M1193.9688,355.6406 Q1193.3906,355.9375 1192.75,356.0781 Q1192.1094,356.2344 1191.4063,356.2344 Q1188.9063,356.2344 1187.5781,354.5938 Q1186.2656,352.9375 1186.2656,349.8125 Q1186.2656,346.6875 1187.5781,345.0313 Q1188.9063,343.375 1191.4063,343.375 Q1192.1094,343.375 1192.75,343.5313 Q1193.4063,343.6875 1193.9688,343.9844 L1193.9688,346.7031 Q1193.3438,346.125 1192.75,345.8594 Q1192.1563,345.5781 1191.5313,345.5781 Q1190.1875,345.5781 1189.5,346.6563 Q1188.8125,347.7188 1188.8125,349.8125 Q1188.8125,351.9063 1189.5,352.9844 Q1190.1875,354.0469 1191.5313,354.0469 Q1192.1563,354.0469 1192.75,353.7813 Q1193.3438,353.5 1193.9688,352.9219 L1193.9688,355.6406 Z " fill="#000000"/><text fill="#000000" font-family="sans-serif" font-size="14" lengthAdjust="spacing" textLength="170.502" x="1205" y="354.8467">GamePointsPlayerGreen</text><line style="stroke:#181818;stroke-width:0.5;" x1="1177" x2="1377.502" y1="366" y2="366"/><line style="stroke:#181818;stroke-width:0.5;" x1="1177" x2="1377.502" y1="374" y2="374"/></g><!--class GamePointsPlayerRed--><g id="elem_GamePointsPlayerRed"><rect codeLine="11" fill="#F1F1F1" height="48" id="GamePointsPlayerRed" rx="2.5" ry="2.5" style="stroke:#181818;stroke-width:0.5;" width="187.0254" x="1414" y="334"/><ellipse cx="1429" cy="350" fill="#ADD1B2" rx="11" ry="11" style="stroke:#181818;stroke-width:1;"/><path d="M1431.9688,355.6406 Q1431.3906,355.9375 1430.75,356.0781 Q1430.1094,356.2344 1429.4063,356.2344 Q1426.9063,356.2344 1425.5781,354.5938 Q1424.2656,352.9375 1424.2656,349.8125 Q1424.2656,346.6875 1425.5781,345.0313 Q1426.9063,343.375 1429.4063,343.375 Q1430.1094,343.375 1430.75,343.5313 Q1431.4063,343.6875 1431.9688,343.9844 L1431.9688,346.7031 Q1431.3438,346.125 1430.75,345.8594 Q1430.1563,345.5781 1429.5313,345.5781 Q1428.1875,345.5781 1427.5,346.6563 Q1426.8125,347.7188 1426.8125,349.8125 Q1426.8125,351.9063 1427.5,352.9844 Q1428.1875,354.0469 1429.5313,354.0469 Q1430.1563,354.0469 1430.75,353.7813 Q1431.3438,353.5 1431.9688,352.9219 L1431.9688,355.6406 Z " fill="#000000"/><text fill="#000000" font-family="sans-serif" font-size="14" lengthAdjust="spacing" textLength="155.0254" x="1443" y="354.8467">GamePointsPlayerRed</text><line style="stroke:#181818;stroke-width:0.5;" x1="1415" x2="1600.0254" y1="366" y2="366"/><line style="stroke:#181818;stroke-width:0.5;" x1="1415" x2="1600.0254" y1="374" y2="374"/></g><!--class GameScore--><g id="elem_GameScore"><rect codeLine="13" fill="#F1F1F1" height="48" id="GameScore" rx="2.5" ry="2.5" style="stroke:#181818;stroke-width:0.5;" width="113.1973" x="1028" y="334"/><ellipse cx="1043" cy="350" fill="#ADD1B2" rx="11" ry="11" style="stroke:#181818;stroke-width:1;"/><path d="M1045.9688,355.6406 Q1045.3906,355.9375 1044.75,356.0781 Q1044.1094,356.2344 1043.4063,356.2344 Q1040.9063,356.2344 1039.5781,354.5938 Q1038.2656,352.9375 1038.2656,349.8125 Q1038.2656,346.6875 1039.5781,345.0313 Q1040.9063,343.375 1043.4063,343.375 Q1044.1094,343.375 1044.75,343.5313 Q1045.4063,343.6875 1045.9688,343.9844 L1045.9688,346.7031 Q1045.3438,346.125 1044.75,345.8594 Q1044.1563,345.5781 1043.5313,345.5781 Q1042.1875,345.5781 1041.5,346.6563 Q1040.8125,347.7188 1040.8125,349.8125 Q1040.8125,351.9063 1041.5,352.9844 Q1042.1875,354.0469 1043.5313,354.0469 Q1044.1563,354.0469 1044.75,353.7813 Q1045.3438,353.5 1045.9688,352.9219 L1045.9688,355.6406 Z " fill="#000000"/><text fill="#000000" font-family="sans-serif" font-size="14" lengthAdjust="spacing" textLength="81.1973" x="1057" y="354.8467">GameScore</text><line style="stroke:#181818;stroke-width:0.5;" x1="1029" x2="1140.1973" y1="366" y2="366"/><line style="stroke:#181818;stroke-width:0.5;" x1="1029" x2="1140.1973" y1="374" y2="374"/></g><!--class Score0--><g id="elem_Score0"><rect codeLine="14" fill="#F1F1F1" height="48" id="Score0" rx="2.5" ry="2.5" style="stroke:#181818;stroke-width:0.5;" width="80.4258" x="1307.5" y="443"/><ellipse cx="1322.5" cy="459" fill="#ADD1B2" rx="11" ry="11" style="stroke:#181818;stroke-width:1;"/><path d="M1325.4688,464.6406 Q1324.8906,464.9375 1324.25,465.0781 Q1323.6094,465.2344 1322.9063,465.2344 Q1320.4063,465.2344 1319.0781,463.5938 Q1317.7656,461.9375 1317.7656,458.8125 Q1317.7656,455.6875 1319.0781,454.0313 Q1320.4063,452.375 1322.9063,452.375 Q1323.6094,452.375 1324.25,452.5313 Q1324.9063,452.6875 1325.4688,452.9844 L1325.4688,455.7031 Q1324.8438,455.125 1324.25,454.8594 Q1323.6563,454.5781 1323.0313,454.5781 Q1321.6875,454.5781 1321,455.6563 Q1320.3125,456.7188 1320.3125,458.8125 Q1320.3125,460.9063 1321,461.9844 Q1321.6875,463.0469 1323.0313,463.0469 Q1323.6563,463.0469 1324.25,462.7813 Q1324.8438,462.5 1325.4688,461.9219 L1325.4688,464.6406 Z " fill="#000000"/><text fill="#000000" font-family="sans-serif" font-size="14" lengthAdjust="spacing" textLength="48.4258" x="1336.5" y="463.8467">Score0</text><line style="stroke:#181818;stroke-width:0.5;" x1="1308.5" x2="1386.9258" y1="475" y2="475"/><line style="stroke:#181818;stroke-width:0.5;" x1="1308.5" x2="1386.9258" y1="483" y2="483"/></g><!--class Score15--><g id="elem_Score15"><rect codeLine="15" fill="#F1F1F1" height="48" id="Score15" rx="2.5" ry="2.5" style="stroke:#181818;stroke-width:0.5;" width="89.333" x="792" y="443"/><ellipse cx="807" cy="459" fill="#ADD1B2" rx="11" ry="11" style="stroke:#181818;stroke-width:1;"/><path d="M809.9688,464.6406 Q809.3906,464.9375 808.75,465.0781 Q808.1094,465.2344 807.4063,465.2344 Q804.9063,465.2344 803.5781,463.5938 Q802.2656,461.9375 802.2656,458.8125 Q802.2656,455.6875 803.5781,454.0313 Q804.9063,452.375 807.4063,452.375 Q808.1094,452.375 808.75,452.5313 Q809.4063,452.6875 809.9688,452.9844 L809.9688,455.7031 Q809.3438,455.125 808.75,454.8594 Q808.1563,454.5781 807.5313,454.5781 Q806.1875,454.5781 805.5,455.6563 Q804.8125,456.7188 804.8125,458.8125 Q804.8125,460.9063 805.5,461.9844 Q806.1875,463.0469 807.5313,463.0469 Q808.1563,463.0469 808.75,462.7813 Q809.3438,462.5 809.9688,461.9219 L809.9688,464.6406 Z " fill="#000000"/><text fill="#000000" font-family="sans-serif" font-size="14" lengthAdjust="spacing" textLength="57.333" x="821" y="463.8467">Score15</text><line style="stroke:#181818;stroke-width:0.5;" x1="793" x2="880.333" y1="475" y2="475"/><line style="stroke:#181818;stroke-width:0.5;" x1="793" x2="880.333" y1="483" y2="483"/></g><!--class Score30--><g id="elem_Score30"><rect codeLine="16" fill="#F1F1F1" height="48" id="Score30" rx="2.5" ry="2.5" style="stroke:#181818;stroke-width:0.5;" width="89.333" x="916" y="443"/><ellipse cx="931" cy="459" fill="#ADD1B2" rx="11" ry="11" style="stroke:#181818;stroke-width:1;"/><path d="M933.9688,464.6406 Q933.3906,464.9375 932.75,465.0781 Q932.1094,465.2344 931.4063,465.2344 Q928.9063,465.2344 927.5781,463.5938 Q926.2656,461.9375 926.2656,458.8125 Q926.2656,455.6875 927.5781,454.0313 Q928.9063,452.375 931.4063,452.375 Q932.1094,452.375 932.75,452.5313 Q933.4063,452.6875 933.9688,452.9844 L933.9688,455.7031 Q933.3438,455.125 932.75,454.8594 Q932.1563,454.5781 931.5313,454.5781 Q930.1875,454.5781 929.5,455.6563 Q928.8125,456.7188 928.8125,458.8125 Q928.8125,460.9063 929.5,461.9844 Q930.1875,463.0469 931.5313,463.0469 Q932.1563,463.0469 932.75,462.7813 Q933.3438,462.5 933.9688,461.9219 L933.9688,464.6406 Z " fill="#000000"/><text fill="#000000" font-family="sans-serif" font-size="14" lengthAdjust="spacing" textLength="57.333" x="945" y="463.8467">Score30</text><line style="stroke:#181818;stroke-width:0.5;" x1="917" x2="1004.333" y1="475" y2="475"/><line style="stroke:#181818;stroke-width:0.5;" x1="917" x2="1004.333" y1="483" y2="483"/></g><!--class Score40--><g id="elem_Score40"><rect codeLine="17" fill="#F1F1F1" height="48" id="Score40" rx="2.5" ry="2.5" style="stroke:#181818;stroke-width:0.5;" width="89.333" x="1040" y="443"/><ellipse cx="1055" cy="459" fill="#ADD1B2" rx="11" ry="11" style="stroke:#181818;stroke-width:1;"/><path d="M1057.9688,464.6406 Q1057.3906,464.9375 1056.75,465.0781 Q1056.1094,465.2344 1055.4063,465.2344 Q1052.9063,465.2344 1051.5781,463.5938 Q1050.2656,461.9375 1050.2656,458.8125 Q1050.2656,455.6875 1051.5781,454.0313 Q1052.9063,452.375 1055.4063,452.375 Q1056.1094,452.375 1056.75,452.5313 Q1057.4063,452.6875 1057.9688,452.9844 L1057.9688,455.7031 Q1057.3438,455.125 1056.75,454.8594 Q1056.1563,454.5781 1055.5313,454.5781 Q1054.1875,454.5781 1053.5,455.6563 Q1052.8125,456.7188 1052.8125,458.8125 Q1052.8125,460.9063 1053.5,461.9844 Q1054.1875,463.0469 1055.5313,463.0469 Q1056.1563,463.0469 1056.75,462.7813 Q1057.3438,462.5 1057.9688,461.9219 L1057.9688,464.6406 Z " fill="#000000"/><text fill="#000000" font-family="sans-serif" font-size="14" lengthAdjust="spacing" textLength="57.333" x="1069" y="463.8467">Score40</text><line style="stroke:#181818;stroke-width:0.5;" x1="1041" x2="1128.333" y1="475" y2="475"/><line style="stroke:#181818;stroke-width:0.5;" x1="1041" x2="1128.333" y1="483" y2="483"/></g><!--class Advantage--><g id="elem_Advantage"><rect codeLine="18" fill="#F1F1F1" height="48" id="Advantage" rx="2.5" ry="2.5" style="stroke:#181818;stroke-width:0.5;" width="107.7695" x="1164.5" y="443"/><ellipse cx="1179.5" cy="459" fill="#ADD1B2" rx="11" ry="11" style="stroke:#181818;stroke-width:1;"/><path d="M1182.4688,464.6406 Q1181.8906,464.9375 1181.25,465.0781 Q1180.6094,465.2344 1179.9063,465.2344 Q1177.4063,465.2344 1176.0781,463.5938 Q1174.7656,461.9375 1174.7656,458.8125 Q1174.7656,455.6875 1176.0781,454.0313 Q1177.4063,452.375 1179.9063,452.375 Q1180.6094,452.375 1181.25,452.5313 Q1181.9063,452.6875 1182.4688,452.9844 L1182.4688,455.7031 Q1181.8438,455.125 1181.25,454.8594 Q1180.6563,454.5781 1180.0313,454.5781 Q1178.6875,454.5781 1178,455.6563 Q1177.3125,456.7188 1177.3125,458.8125 Q1177.3125,460.9063 1178,461.9844 Q1178.6875,463.0469 1180.0313,463.0469 Q1180.6563,463.0469 1181.25,462.7813 Q1181.8438,462.5 1182.4688,461.9219 L1182.4688,464.6406 Z " fill="#000000"/><text fill="#000000" font-family="sans-serif" font-size="14" lengthAdjust="spacing" textLength="75.7695" x="1193.5" y="463.8467">Advantage</text><line style="stroke:#181818;stroke-width:0.5;" x1="1165.5" x2="1271.2695" y1="475" y2="475"/><line style="stroke:#181818;stroke-width:0.5;" x1="1165.5" x2="1271.2695" y1="483" y2="483"/></g><!--class SetScore--><g id="elem_SetScore"><rect codeLine="20" fill="#F1F1F1" height="48" id="SetScore" rx="2.5" ry="2.5" style="stroke:#181818;stroke-width:0.5;" width="94.5078" x="475" y="334"/><ellipse cx="490" cy="350" fill="#ADD1B2" rx="11" ry="11" style="stroke:#181818;stroke-width:1;"/><path d="M492.9688,355.6406 Q492.3906,355.9375 491.75,356.0781 Q491.1094,356.2344 490.4063,356.2344 Q487.9063,356.2344 486.5781,354.5938 Q485.2656,352.9375 485.2656,349.8125 Q485.2656,346.6875 486.5781,345.0313 Q487.9063,343.375 490.4063,343.375 Q491.1094,343.375 491.75,343.5313 Q492.4063,343.6875 492.9688,343.9844 L492.9688,346.7031 Q492.3438,346.125 491.75,345.8594 Q491.1563,345.5781 490.5313,345.5781 Q489.1875,345.5781 488.5,346.6563 Q487.8125,347.7188 487.8125,349.8125 Q487.8125,351.9063 488.5,352.9844 Q489.1875,354.0469 490.5313,354.0469 Q491.1563,354.0469 491.75,353.7813 Q492.3438,353.5 492.9688,352.9219 L492.9688,355.6406 Z " fill="#000000"/><text fill="#000000" font-family="sans-serif" font-size="14" lengthAdjust="spacing" textLength="62.5078" x="504" y="354.8467">SetScore</text><line style="stroke:#181818;stroke-width:0.5;" x1="476" x2="568.5078" y1="366" y2="366"/><line style="stroke:#181818;stroke-width:0.5;" x1="476" x2="568.5078" y1="374" y2="374"/></g><!--class SetScore1--><g id="elem_SetScore1"><rect codeLine="21" fill="#F1F1F1" height="48" id="SetScore1" rx="2.5" ry="2.5" style="stroke:#181818;stroke-width:0.5;" width="103.415" x="556" y="443"/><ellipse cx="571" cy="459" fill="#ADD1B2" rx="11" ry="11" style="stroke:#181818;stroke-width:1;"/><path d="M573.9688,464.6406 Q573.3906,464.9375 572.75,465.0781 Q572.1094,465.2344 571.4063,465.2344 Q568.9063,465.2344 567.5781,463.5938 Q566.2656,461.9375 566.2656,458.8125 Q566.2656,455.6875 567.5781,454.0313 Q568.9063,452.375 571.4063,452.375 Q572.1094,452.375 572.75,452.5313 Q573.4063,452.6875 573.9688,452.9844 L573.9688,455.7031 Q573.3438,455.125 572.75,454.8594 Q572.1563,454.5781 571.5313,454.5781 Q570.1875,454.5781 569.5,455.6563 Q568.8125,456.7188 568.8125,458.8125 Q568.8125,460.9063 569.5,461.9844 Q570.1875,463.0469 571.5313,463.0469 Q572.1563,463.0469 572.75,462.7813 Q573.3438,462.5 573.9688,461.9219 L573.9688,464.6406 Z " fill="#000000"/><text fill="#000000" font-family="sans-serif" font-size="14" lengthAdjust="spacing" textLength="71.415" x="585" y="463.8467">SetScore1</text><line style="stroke:#181818;stroke-width:0.5;" x1="557" x2="658.415" y1="475" y2="475"/><line style="stroke:#181818;stroke-width:0.5;" x1="557" x2="658.415" y1="483" y2="483"/></g><!--class SetScore7--><g id="elem_SetScore7"><rect codeLine="22" fill="#F1F1F1" height="48" id="SetScore7" rx="2.5" ry="2.5" style="stroke:#181818;stroke-width:0.5;" width="103.415" x="344" y="443"/><ellipse cx="359" cy="459" fill="#ADD1B2" rx="11" ry="11" style="stroke:#181818;stroke-width:1;"/><path d="M361.9688,464.6406 Q361.3906,464.9375 360.75,465.0781 Q360.1094,465.2344 359.4063,465.2344 Q356.9063,465.2344 355.5781,463.5938 Q354.2656,461.9375 354.2656,458.8125 Q354.2656,455.6875 355.5781,454.0313 Q356.9063,452.375 359.4063,452.375 Q360.1094,452.375 360.75,452.5313 Q361.4063,452.6875 361.9688,452.9844 L361.9688,455.7031 Q361.3438,455.125 360.75,454.8594 Q360.1563,454.5781 359.5313,454.5781 Q358.1875,454.5781 357.5,455.6563 Q356.8125,456.7188 356.8125,458.8125 Q356.8125,460.9063 357.5,461.9844 Q358.1875,463.0469 359.5313,463.0469 Q360.1563,463.0469 360.75,462.7813 Q361.3438,462.5 361.9688,461.9219 L361.9688,464.6406 Z " fill="#000000"/><text fill="#000000" font-family="sans-serif" font-size="14" lengthAdjust="spacing" textLength="71.415" x="373" y="463.8467">SetScore7</text><line style="stroke:#181818;stroke-width:0.5;" x1="345" x2="446.415" y1="475" y2="475"/><line style="stroke:#181818;stroke-width:0.5;" x1="345" x2="446.415" y1="483" y2="483"/></g><!--class Player--><g id="elem_Player"><rect codeLine="24" fill="#F1F1F1" height="48" id="Player" rx="2.5" ry="2.5" style="stroke:#181818;stroke-width:0.5;" width="75.5654" x="725.5" y="116"/><ellipse cx="740.5" cy="132" fill="#ADD1B2" rx="11" ry="11" style="stroke:#181818;stroke-width:1;"/><path d="M743.4688,137.6406 Q742.8906,137.9375 742.25,138.0781 Q741.6094,138.2344 740.9063,138.2344 Q738.4063,138.2344 737.0781,136.5938 Q735.7656,134.9375 735.7656,131.8125 Q735.7656,128.6875 737.0781,127.0313 Q738.4063,125.375 740.9063,125.375 Q741.6094,125.375 742.25,125.5313 Q742.9063,125.6875 743.4688,125.9844 L743.4688,128.7031 Q742.8438,128.125 742.25,127.8594 Q741.6563,127.5781 741.0313,127.5781 Q739.6875,127.5781 739,128.6563 Q738.3125,129.7188 738.3125,131.8125 Q738.3125,133.9063 739,134.9844 Q739.6875,136.0469 741.0313,136.0469 Q741.6563,136.0469 742.25,135.7813 Q742.8438,135.5 743.4688,134.9219 L743.4688,137.6406 Z " fill="#000000"/><text fill="#000000" font-family="sans-serif" font-size="14" lengthAdjust="spacing" textLength="43.5654" x="754.5" y="136.8467">Player</text><line style="stroke:#181818;stroke-width:0.5;" x1="726.5" x2="800.0654" y1="148" y2="148"/><line style="stroke:#181818;stroke-width:0.5;" x1="726.5" x2="800.0654" y1="156" y2="156"/></g><!--class ScoreboardServiceGreen--><g id="elem_ScoreboardServiceGreen"><rect fill="#F1F1F1" height="48" id="ScoreboardServiceGreen" rx="2.5" ry="2.5" style="stroke:#181818;stroke-width:0.5;" width="206.6377" x="7" y="334"/><ellipse cx="22" cy="350" fill="#ADD1B2" rx="11" ry="11" style="stroke:#181818;stroke-width:1;"/><path d="M24.9688,355.6406 Q24.3906,355.9375 23.75,356.0781 Q23.1094,356.2344 22.4063,356.2344 Q19.9063,356.2344 18.5781,354.5938 Q17.2656,352.9375 17.2656,349.8125 Q17.2656,346.6875 18.5781,345.0313 Q19.9063,343.375 22.4063,343.375 Q23.1094,343.375 23.75,343.5313 Q24.4063,343.6875 24.9688,343.9844 L24.9688,346.7031 Q24.3438,346.125 23.75,345.8594 Q23.1563,345.5781 22.5313,345.5781 Q21.1875,345.5781 20.5,346.6563 Q19.8125,347.7188 19.8125,349.8125 Q19.8125,351.9063 20.5,352.9844 Q21.1875,354.0469 22.5313,354.0469 Q23.1563,354.0469 23.75,353.7813 Q24.3438,353.5 24.9688,352.9219 L24.9688,355.6406 Z " fill="#000000"/><text fill="#000000" font-family="sans-serif" font-size="14" lengthAdjust="spacing" textLength="174.6377" x="36" y="354.8467">ScoreboardServiceGreen</text><line style="stroke:#181818;stroke-width:0.5;" x1="8" x2="212.6377" y1="366" y2="366"/><line style="stroke:#181818;stroke-width:0.5;" x1="8" x2="212.6377" y1="374" y2="374"/></g><!--class ScoreboardServiceRed--><g id="elem_ScoreboardServiceRed"><rect fill="#F1F1F1" height="48" id="ScoreboardServiceRed" rx="2.5" ry="2.5" style="stroke:#181818;stroke-width:0.5;" width="191.1611" x="249" y="334"/><ellipse cx="264" cy="350" fill="#ADD1B2" rx="11" ry="11" style="stroke:#181818;stroke-width:1;"/><path d="M266.9688,355.6406 Q266.3906,355.9375 265.75,356.0781 Q265.1094,356.2344 264.4063,356.2344 Q261.9063,356.2344 260.5781,354.5938 Q259.2656,352.9375 259.2656,349.8125 Q259.2656,346.6875 260.5781,345.0313 Q261.9063,343.375 264.4063,343.375 Q265.1094,343.375 265.75,343.5313 Q266.4063,343.6875 266.9688,343.9844 L266.9688,346.7031 Q266.3438,346.125 265.75,345.8594 Q265.1563,345.5781 264.5313,345.5781 Q263.1875,345.5781 262.5,346.6563 Q261.8125,347.7188 261.8125,349.8125 Q261.8125,351.9063 262.5,352.9844 Q263.1875,354.0469 264.5313,354.0469 Q265.1563,354.0469 265.75,353.7813 Q266.3438,353.5 266.9688,352.9219 L266.9688,355.6406 Z " fill="#000000"/><text fill="#000000" font-family="sans-serif" font-size="14" lengthAdjust="spacing" textLength="159.1611" x="278" y="354.8467">ScoreboardServiceRed</text><line style="stroke:#181818;stroke-width:0.5;" x1="250" x2="439.1611" y1="366" y2="366"/><line style="stroke:#181818;stroke-width:0.5;" x1="250" x2="439.1611" y1="374" y2="374"/></g><!--link Scoreboard to ScoreboardSet--><g id="link_Scoreboard_ScoreboardSet"><path codeLine="26" d="M622.5,67.22 C622.5,85.16 622.5,91.89 622.5,109.83 " fill="none" id="Scoreboard-ScoreboardSet" style="stroke:#181818;stroke-width:1;"/><polygon fill="#181818" points="622.5,55.22,618.5,61.22,622.5,67.22,626.5,61.22,622.5,55.22" style="stroke:#181818;stroke-width:1;"/><polygon fill="#181818" points="622.5,115.83,626.5,106.83,622.5,110.83,618.5,106.83,622.5,115.83" style="stroke:#181818;stroke-width:1;"/><text fill="#000000" font-family="sans-serif" font-size="13" lengthAdjust="spacing" textLength="21.2329" x="598.8159" y="104.7985">3-5</text></g><!--link ScoreboardSet to SetPointsPlayer--><g id="link_ScoreboardSet_SetPointsPlayer"><path codeLine="27" d="M645.6596,174.0451 C658.2396,191.9851 665.247,201.9762 677.817,219.9162 " fill="none" id="ScoreboardSet-SetPointsPlayer" style="stroke:#181818;stroke-width:1;"/><polygon fill="#181818" points="638.77,164.22,638.9398,171.4291,645.6596,174.0451,645.4899,166.836,638.77,164.22" style="stroke:#181818;stroke-width:1;"/><polygon fill="#181818" points="681.26,224.83,679.3714,215.1639,678.3909,220.7351,672.8196,219.7545,681.26,224.83" style="stroke:#181818;stroke-width:1;"/><text fill="#000000" font-family="sans-serif" font-size="13" lengthAdjust="spacing" textLength="8.271" x="668.0943" y="213.7985">2</text></g><!--reverse link SetPointsPlayer to SetPointsPlayerGreen--><g id="link_SetPointsPlayer_SetPointsPlayerGreen"><path codeLine="28" d="M697.5,291.22 C697.5,309.16 697.5,315.89 697.5,333.83 " fill="none" id="SetPointsPlayer-backto-SetPointsPlayerGreen" style="stroke:#181818;stroke-width:1;"/><polygon fill="none" points="697.5,273.22,691.5,291.22,703.5,291.22,697.5,273.22" style="stroke:#181818;stroke-width:1;"/></g><!--reverse link SetPointsPlayer to SetPointsPlayerRed--><g id="link_SetPointsPlayer_SetPointsPlayerRed"><path codeLine="29" d="M759.0742,281.2302 C794.5742,299.2302 827.58,315.97 863.06,333.96 " fill="none" id="SetPointsPlayer-backto-SetPointsPlayerRed" style="stroke:#181818;stroke-width:1;"/><polygon fill="none" points="743.02,273.09,756.3608,286.5816,761.7876,275.8788,743.02,273.09" style="stroke:#181818;stroke-width:1;"/></g><!--link Scoreboard to ScoreboardGame--><g id="link_Scoreboard_ScoreboardGame"><path codeLine="31" d="M690.1192,49.6876 C761.5492,68.3776 868.0154,96.2313 948.3954,117.2613 " fill="none" id="Scoreboard-ScoreboardGame" style="stroke:#181818;stroke-width:1;"/><polygon fill="#181818" points="678.51,46.65,683.3021,52.0385,690.1192,49.6876,685.3271,44.2991,678.51,46.65" style="stroke:#181818;stroke-width:1;"/><polygon fill="#181818" points="954.2,118.78,946.5055,112.6322,949.3628,117.5144,944.4806,120.3717,954.2,118.78" style="stroke:#181818;stroke-width:1;"/></g><!--link ScoreboardGame to GamePointsPlayer--><g id="link_ScoreboardGame_GamePointsPlayer"><path codeLine="32" d="M1048.3282,174.9722 C1057.2182,192.9122 1061.4783,201.5127 1070.3583,219.4527 " fill="none" id="ScoreboardGame-GamePointsPlayer" style="stroke:#181818;stroke-width:1;"/><polygon fill="#181818" points="1043,164.22,1042.08,171.3722,1048.3282,174.9722,1049.2482,167.8201,1043,164.22" style="stroke:#181818;stroke-width:1;"/><polygon fill="#181818" points="1073.02,224.83,1072.6124,214.9896,1070.8019,220.3489,1065.4426,218.5385,1073.02,224.83" style="stroke:#181818;stroke-width:1;"/><text fill="#000000" font-family="sans-serif" font-size="13" lengthAdjust="spacing" textLength="8.271" x="1061.1139" y="213.7985">2</text></g><!--reverse link GamePointsPlayer to GamePointsPlayerGreen--><g id="link_GamePointsPlayer_GamePointsPlayerGreen"><path codeLine="33" d="M1142.1238,281.9455 C1174.4938,299.8855 1203.35,315.89 1235.7,333.83 " fill="none" id="GamePointsPlayer-backto-GamePointsPlayerGreen" style="stroke:#181818;stroke-width:1;"/><polygon fill="none" points="1126.38,273.22,1139.2153,287.1934,1145.0323,276.6975,1126.38,273.22" style="stroke:#181818;stroke-width:1;"/></g><!--reverse link GamePointsPlayer to GamePointsPlayerRed--><g id="link_GamePointsPlayer_GamePointsPlayerRed"><path codeLine="34" d="M1182.0102,274.6648 C1253.7502,292.8148 1341.45,315 1416.38,333.95 " fill="none" id="GamePointsPlayer-backto-GamePointsPlayerRed" style="stroke:#181818;stroke-width:1;"/><polygon fill="none" points="1164.56,270.25,1180.5386,280.4816,1183.4818,268.8481,1164.56,270.25" style="stroke:#181818;stroke-width:1;"/></g><!--link GamePointsPlayer to GameScore--><g id="link_GamePointsPlayer_GameScore"><path codeLine="36" d="M1084.5,285.22 C1084.5,303.16 1084.5,309.89 1084.5,327.83 " fill="none" id="GamePointsPlayer-GameScore" style="stroke:#181818;stroke-width:1;"/><polygon fill="none" points="1084.5,273.22,1080.5,279.22,1084.5,285.22,1088.5,279.22,1084.5,273.22" style="stroke:#181818;stroke-width:1;"/><polygon fill="#181818" points="1084.5,333.83,1088.5,324.83,1084.5,328.83,1080.5,324.83,1084.5,333.83" style="stroke:#181818;stroke-width:1;"/></g><!--reverse link GameScore to Score0--><g id="link_GameScore_Score0"><path codeLine="37" d="M1157.9139,388.871 C1207.9039,409.201 1262.79,431.53 1307.13,449.58 " fill="none" id="GameScore-backto-Score0" style="stroke:#181818;stroke-width:1;"/><polygon fill="none" points="1141.24,382.09,1155.6536,394.4289,1160.1742,383.313,1141.24,382.09" style="stroke:#181818;stroke-width:1;"/></g><!--reverse link GameScore to Score15--><g id="link_GameScore_Score15"><path codeLine="38" d="M1014.4626,389.2207 C969.7526,408.5107 923.26,428.57 881.2,446.71 " fill="none" id="GameScore-backto-Score15" style="stroke:#181818;stroke-width:1;"/><polygon fill="none" points="1030.99,382.09,1012.0858,383.7116,1016.8395,394.7298,1030.99,382.09" style="stroke:#181818;stroke-width:1;"/></g><!--reverse link GameScore to Score30--><g id="link_GameScore_Score30"><path codeLine="39" d="M1043.9595,393.9763 C1023.1595,411.9163 1008.14,424.89 987.35,442.83 " fill="none" id="GameScore-backto-Score30" style="stroke:#181818;stroke-width:1;"/><polygon fill="none" points="1057.59,382.22,1040.0408,389.4328,1047.8783,398.5198,1057.59,382.22" style="stroke:#181818;stroke-width:1;"/></g><!--reverse link GameScore to Score40--><g id="link_GameScore_Score40"><path codeLine="40" d="M1084.5,400.22 C1084.5,418.16 1084.5,424.89 1084.5,442.83 " fill="none" id="GameScore-backto-Score40" style="stroke:#181818;stroke-width:1;"/><polygon fill="none" points="1084.5,382.22,1078.5,400.22,1090.5,400.22,1084.5,382.22" style="stroke:#181818;stroke-width:1;"/></g><!--reverse link GameScore to Advantage--><g id="link_GameScore_Advantage"><path codeLine="41" d="M1127.6466,393.4508 C1150.1166,411.3908 1167.02,424.89 1189.48,442.83 " fill="none" id="GameScore-backto-Advantage" style="stroke:#181818;stroke-width:1;"/><polygon fill="none" points="1113.58,382.22,1123.903,398.1396,1131.3902,388.7619,1113.58,382.22" style="stroke:#181818;stroke-width:1;"/></g><!--link SetPointsPlayer to SetScore--><g id="link_SetPointsPlayer_SetScore"><path codeLine="43" d="M649.2903,279.4768 C619.9303,297.4168 594.8484,312.7593 565.5184,330.6993 " fill="none" id="SetPointsPlayer-SetScore" style="stroke:#181818;stroke-width:1;"/><polygon fill="none" points="659.53,273.22,652.3245,272.9352,649.2903,279.4768,656.4957,279.7617,659.53,273.22" style="stroke:#181818;stroke-width:1;"/><polygon fill="#181818" points="560.4,333.83,570.1648,332.5462,564.6654,331.221,565.9905,325.7216,560.4,333.83" style="stroke:#181818;stroke-width:1;"/></g><!--reverse link SetScore to SetScore1--><g id="link_SetScore_SetScore1"><path codeLine="44" d="M552.1404,396.3108 C566.4004,414.2508 574.84,424.89 589.09,442.83 " fill="none" id="SetScore-backto-SetScore1" style="stroke:#181818;stroke-width:1;"/><polygon fill="none" points="540.94,382.22,547.4435,400.0443,556.8373,392.5774,540.94,382.22" style="stroke:#181818;stroke-width:1;"/></g><!--reverse link SetScore to SetScore7--><g id="link_SetScore_SetScore7"><path codeLine="45" d="M481.1726,393.8156 C459.8726,411.7556 444.29,424.89 423,442.83 " fill="none" id="SetScore-backto-SetScore7" style="stroke:#181818;stroke-width:1;"/><polygon fill="none" points="494.94,382.22,477.3074,389.2265,485.0378,398.4048,494.94,382.22" style="stroke:#181818;stroke-width:1;"/></g><!--link SetScore7 to SetScore1--><g id="link_SetScore7_SetScore1"><path codeLine="46" d="M447.09,467 C480.06,467 522.66,467 555.68,467 " fill="none" id="SetScore7-SetScore1" style="stroke:#181818;stroke-width:1;stroke-dasharray:7.0,7.0;"/><text fill="#000000" font-family="sans-serif" font-size="13" lengthAdjust="spacing" textLength="72.5283" x="465.5" y="460.0669">from 1 to 7</text></g><!--link Scoreboard to ScoreboardService--><g id="link_Scoreboard_ScoreboardService"><path codeLine="48" d="M588.7949,63.369 C571.4049,79.829 556.72,94.5 537.5,116 C504.84,152.55 473.829,193.1469 453.909,220.0669 " fill="none" id="Scoreboard-ScoreboardService" style="stroke:#181818;stroke-width:1;"/><polygon fill="#181818" points="597.51,55.12,590.4028,56.3395,588.7949,63.369,595.9021,62.1496,597.51,55.12" style="stroke:#181818;stroke-width:1;"/><polygon fill="#181818" points="450.34,224.89,458.9089,220.0346,453.3141,220.8707,452.478,215.276,450.34,224.89" style="stroke:#181818;stroke-width:1;"/><text fill="#000000" font-family="sans-serif" font-size="13" lengthAdjust="spacing" textLength="8.271" x="445.6735" y="213.8738">2</text></g><!--reverse link ScoreboardService to ScoreboardServiceGreen--><g id="link_ScoreboardService_ScoreboardServiceGreen"><path codeLine="49" d="M346.723,278.75 C292.383,296.75 234.37,315.97 180.06,333.96 " fill="none" id="ScoreboardService-backto-ScoreboardServiceGreen" style="stroke:#181818;stroke-width:1;"/><polygon fill="none" points="363.81,273.09,344.8364,273.0544,348.6097,284.4457,363.81,273.09" style="stroke:#181818;stroke-width:1;"/></g><!--reverse link ScoreboardService to ScoreboardServiceRed--><g id="link_ScoreboardService_ScoreboardServiceRed"><path codeLine="50" d="M402.6758,287.0556 C387.7458,304.9956 378.69,315.89 363.77,333.83 " fill="none" id="ScoreboardService-backto-ScoreboardServiceRed" style="stroke:#181818;stroke-width:1;"/><polygon fill="none" points="414.19,273.22,398.0639,283.2175,407.2876,290.8936,414.19,273.22" style="stroke:#181818;stroke-width:1;"/></g><!--link Player to GamePointsPlayer--><g id="link_Player_GamePointsPlayer"><path codeLine="52" d="M812.9638,157.486 C865.5338,175.016 944.1378,201.2129 1009.5478,223.0129 " fill="none" id="Player-GamePointsPlayer" style="stroke:#181818;stroke-width:1;"/><polygon fill="#181818" points="801.58,153.69,806.0065,159.3826,812.9638,157.486,808.5372,151.7934,801.58,153.69" style="stroke:#181818;stroke-width:1;"/><polygon fill="#181818" points="1015.24,224.91,1007.9665,218.2696,1010.4965,223.3291,1005.437,225.8591,1015.24,224.91" style="stroke:#181818;stroke-width:1;"/></g><!--link Player to SetPointsPlayer--><g id="link_Player_SetPointsPlayer"><path codeLine="53" d="M742.8784,174.4323 C731.8084,192.3723 726.0108,201.7839 714.9408,219.7239 " fill="none" id="Player-SetPointsPlayer" style="stroke:#181818;stroke-width:1;"/><polygon fill="#181818" points="749.18,164.22,742.6251,167.2256,742.8784,174.4323,749.4333,171.4267,749.18,164.22" style="stroke:#181818;stroke-width:1;"/><polygon fill="#181818" points="711.79,224.83,719.9203,219.2713,714.4156,220.5749,713.1121,215.0703,711.79,224.83" style="stroke:#181818;stroke-width:1;"/><text fill="#000000" font-family="sans-serif" font-size="13" lengthAdjust="spacing" textLength="21.2329" x="691.7771" y="213.7985">3-5</text></g><!--link Player to ScoreboardService--><g id="link_Player_ScoreboardService"><path codeLine="54" d="M714.2693,161.6241 C708.3093,163.9941 713.34,161.91 707.5,164 C643.79,186.79 576.2026,207.4089 521.4426,223.2889 " fill="none" id="Player-ScoreboardService" style="stroke:#181818;stroke-width:1;"/><polygon fill="#181818" points="725.42,157.19,718.3666,155.6901,714.2693,161.6241,721.3227,163.124,725.42,157.19" style="stroke:#181818;stroke-width:1;"/><polygon fill="#181818" points="515.68,224.96,525.438,226.2951,520.4822,223.5674,523.2098,218.6116,515.68,224.96" style="stroke:#181818;stroke-width:1;"/></g><!--SRC=[XLH1QiCm4Bpx5OkF1OKgZZ7qOEWfrz2yGBKt8U1OGLPJ2dbycaIoLreP7sTdl1hjZjnqQXXWtsY3trgPDckYmXujgstL6HD2Spqrc7a2xKwVUZliElM79btT6iG-JNsXz_8uBT4gBjDUCVTeHgYdQNg1TmfaIL4HS1kFFjkhwgqwqli6RHsK4QwytjqbcmO8RqBKa1UYpAFv1yZ9rZaRSMgu87ukubOlQVy7DATa3gCSX71onzQMN9W_TL5D738j4uCMhVxjHKtM_LeqxK7gifmXYhalDWbY30Mdue5F3iVWZ94XcmYPQfQHiEhmO5TJpk033aQVGOBLK2LojiuJZvTLmX0jwscG-A_1tVrfW6sHakuLH56a2jRz3W00]--></g></svg>