<svg xmlns="http://www.w3.org/2000/svg" xmlns:xlink="http://www.w3.org/1999/xlink" contentStyleType="text/css" height="498px" preserveAspectRatio="none" style="width:1607px;height:498px;background:#FFFFFF;" version="1.1" viewBox="0 0 1607 498" width="1607px" zoomAndPan="magnify"><defs/><g><!--class Scoreboard--><g id="elem_Scoreboard"><rect codeLine="1" fill="#F1F1F1" height="48" id="Scoreboard" rx="2.5" ry="2.5" style="stroke:#181818;stroke-width:0.5;" width="112.1924" x="607" y="7"/><ellipse cx="622" cy="23" fill="#ADD1B2" rx="11" ry="11" style="stroke:#181818;stroke-width:1;"/><path d="M624.9688,28.6406 Q624.3906,28.9375 623.75,29.0781 Q623.1094,29.2344 622.4063,29.2344 Q619.9063,29.2344 618.5781,27.5938 Q617.2656,25.9375 617.2656,22.8125 Q617.2656,19.6875 618.5781,18.0313 Q619.9063,16.375 622.4063,16.375 Q623.1094,16.375 623.75,16.5313 Q624.4063,16.6875 624.9688,16.9844 L624.9688,19.7031 Q624.3438,19.125 623.75,18.8594 Q623.1563,18.5781 622.5313,18.5781 Q621.1875,18.5781 620.5,19.6563 Q619.8125,20.7188 619.8125,22.8125 Q619.8125,24.9063 620.5,25.9844 Q621.1875,27.0469 622.5313,27.0469 Q623.1563,27.0469 623.75,26.7813 Q624.3438,26.5 624.9688,25.9219 L624.9688,28.6406 Z " fill="#000000"/><text fill="#000000" font-family="sans-serif" font-size="14" lengthAdjust="spacing" textLength="80.1924" x="636" y="27.8467">Scoreboard</text><line style="stroke:#181818;stroke-width:0.5;" x1="608" x2="718.1924" y1="39" y2="39"/><line style="stroke:#181818;stroke-width:0.5;" x1="608" x2="718.1924" y1="47" y2="47"/></g><!--class ScoreboardSet--><g id="elem_ScoreboardSet"><rect codeLine="2" fill="#F1F1F1" height="48" id="ScoreboardSet" rx="2.5" ry="2.5" style="stroke:#181818;stroke-width:0.5;" width="135.1816" x="458.5" y="116"/><ellipse cx="473.5" cy="132" fill="#ADD1B2" rx="11" ry="11" style="stroke:#181818;stroke-width:1;"/><path d="M476.4688,137.6406 Q475.8906,137.9375 475.25,138.0781 Q474.6094,138.2344 473.9063,138.2344 Q471.4063,138.2344 470.0781,136.5938 Q468.7656,134.9375 468.7656,131.8125 Q468.7656,128.6875 470.0781,127.0313 Q471.4063,125.375 473.9063,125.375 Q474.6094,125.375 475.25,125.5313 Q475.9063,125.6875 476.4688,125.9844 L476.4688,128.7031 Q475.8438,128.125 475.25,127.8594 Q474.6563,127.5781 474.0313,127.5781 Q472.6875,127.5781 472,128.6563 Q471.3125,129.7188 471.3125,131.8125 Q471.3125,133.9063 472,134.9844 Q472.6875,136.0469 474.0313,136.0469 Q474.6563,136.0469 475.25,135.7813 Q475.8438,135.5 476.4688,134.9219 L476.4688,137.6406 Z " fill="#000000"/><text fill="#000000" font-family="sans-serif" font-size="14" lengthAdjust="spacing" textLength="103.1816" x="487.5" y="136.8467">ScoreboardSet</text><line style="stroke:#181818;stroke-width:0.5;" x1="459.5" x2="592.6816" y1="148" y2="148"/><line style="stroke:#181818;stroke-width:0.5;" x1="459.5" x2="592.6816" y1="156" y2="156"/></g><!--class ScoreboardGame--><g id="elem_ScoreboardGame"><rect codeLine="3" fill="#F1F1F1" height="48" id="ScoreboardGame" rx="2.5" ry="2.5" style="stroke:#181818;stroke-width:0.5;" width="153.8711" x="827" y="116"/><ellipse cx="842" cy="132" fill="#ADD1B2" rx="11" ry="11" style="stroke:#181818;stroke-width:1;"/><path d="M844.9688,137.6406 Q844.3906,137.9375 843.75,138.0781 Q843.1094,138.2344 842.4063,138.2344 Q839.9063,138.2344 838.5781,136.5938 Q837.2656,134.9375 837.2656,131.8125 Q837.2656,128.6875 838.5781,127.0313 Q839.9063,125.375 842.4063,125.375 Q843.1094,125.375 843.75,125.5313 Q844.4063,125.6875 844.9688,125.9844 L844.9688,128.7031 Q844.3438,128.125 843.75,127.8594 Q843.1563,127.5781 842.5313,127.5781 Q841.1875,127.5781 840.5,128.6563 Q839.8125,129.7188 839.8125,131.8125 Q839.8125,133.9063 840.5,134.9844 Q841.1875,136.0469 842.5313,136.0469 Q843.1563,136.0469 843.75,135.7813 Q844.3438,135.5 844.9688,134.9219 L844.9688,137.6406 Z " fill="#000000"/><text fill="#000000" font-family="sans-serif" font-size="14" lengthAdjust="spacing" textLength="121.8711" x="856" y="136.8467">ScoreboardGame</text><line style="stroke:#181818;stroke-width:0.5;" x1="828" x2="979.8711" y1="148" y2="148"/><line style="stroke:#181818;stroke-width:0.5;" x1="828" x2="979.8711" y1="156" y2="156"/></g><!--class ScoreboardService--><g id="elem_ScoreboardService"><rect codeLine="4" fill="#F1F1F1" height="48" id="ScoreboardService" rx="2.5" ry="2.5" style="stroke:#181818;stroke-width:0.5;" width="163.9336" x="582" y="225"/><ellipse cx="597" cy="241" fill="#ADD1B2" rx="11" ry="11" style="stroke:#181818;stroke-width:1;"/><path d="M599.9688,246.6406 Q599.3906,246.9375 598.75,247.0781 Q598.1094,247.2344 597.4063,247.2344 Q594.9063,247.2344 593.5781,245.5938 Q592.2656,243.9375 592.2656,240.8125 Q592.2656,237.6875 593.5781,236.0313 Q594.9063,234.375 597.4063,234.375 Q598.1094,234.375 598.75,234.5313 Q599.4063,234.6875 599.9688,234.9844 L599.9688,237.7031 Q599.3438,237.125 598.75,236.8594 Q598.1563,236.5781 597.5313,236.5781 Q596.1875,236.5781 595.5,237.6563 Q594.8125,238.7188 594.8125,240.8125 Q594.8125,242.9063 595.5,243.9844 Q596.1875,245.0469 597.5313,245.0469 Q598.1563,245.0469 598.75,244.7813 Q599.3438,244.5 599.9688,243.9219 L599.9688,246.6406 Z " fill="#000000"/><text fill="#000000" font-family="sans-serif" font-size="14" lengthAdjust="spacing" textLength="131.9336" x="611" y="245.8467">ScoreboardService</text><line style="stroke:#181818;stroke-width:0.5;" x1="583" x2="744.9336" y1="257" y2="257"/><line style="stroke:#181818;stroke-width:0.5;" x1="583" x2="744.9336" y1="265" y2="265"/></g><!--class SetPointsPlayer--><g id="elem_SetPointsPlayer"><rect codeLine="6" fill="#F1F1F1" height="48" id="SetPointsPlayer" rx="2.5" ry="2.5" style="stroke:#181818;stroke-width:0.5;" width="141.1084" x="405.5" y="225"/><ellipse cx="420.5" cy="241" fill="#ADD1B2" rx="11" ry="11" style="stroke:#181818;stroke-width:1;"/><path d="M423.4688,246.6406 Q422.8906,246.9375 422.25,247.0781 Q421.6094,247.2344 420.9063,247.2344 Q418.4063,247.2344 417.0781,245.5938 Q415.7656,243.9375 415.7656,240.8125 Q415.7656,237.6875 417.0781,236.0313 Q418.4063,234.375 420.9063,234.375 Q421.6094,234.375 422.25,234.5313 Q422.9063,234.6875 423.4688,234.9844 L423.4688,237.7031 Q422.8438,237.125 422.25,236.8594 Q421.6563,236.5781 421.0313,236.5781 Q419.6875,236.5781 419,237.6563 Q418.3125,238.7188 418.3125,240.8125 Q418.3125,242.9063 419,243.9844 Q419.6875,245.0469 421.0313,245.0469 Q421.6563,245.0469 422.25,244.7813 Q422.8438,244.5 423.4688,243.9219 L423.4688,246.6406 Z " fill="#000000"/><text fill="#000000" font-family="sans-serif" font-size="14" lengthAdjust="spacing" textLength="109.1084" x="434.5" y="245.8467">SetPointsPlayer</text><line style="stroke:#181818;stroke-width:0.5;" x1="406.5" x2="545.6084" y1="257" y2="257"/><line style="stroke:#181818;stroke-width:0.5;" x1="406.5" x2="545.6084" y1="265" y2="265"/></g><!--class SetPointsPlayerGreen--><g id="elem_SetPointsPlayerGreen"><rect codeLine="7" fill="#F1F1F1" height="48" id="SetPointsPlayerGreen" rx="2.5" ry="2.5" style="stroke:#181818;stroke-width:0.5;" width="183.8125" x="7" y="334"/><ellipse cx="22" cy="350" fill="#ADD1B2" rx="11" ry="11" style="stroke:#181818;stroke-width:1;"/><path d="M24.9688,355.6406 Q24.3906,355.9375 23.75,356.0781 Q23.1094,356.2344 22.4063,356.2344 Q19.9063,356.2344 18.5781,354.5938 Q17.2656,352.9375 17.2656,349.8125 Q17.2656,346.6875 18.5781,345.0313 Q19.9063,343.375 22.4063,343.375 Q23.1094,343.375 23.75,343.5313 Q24.4063,343.6875 24.9688,343.9844 L24.9688,346.7031 Q24.3438,346.125 23.75,345.8594 Q23.1563,345.5781 22.5313,345.5781 Q21.1875,345.5781 20.5,346.6563 Q19.8125,347.7188 19.8125,349.8125 Q19.8125,351.9063 20.5,352.9844 Q21.1875,354.0469 22.5313,354.0469 Q23.1563,354.0469 23.75,353.7813 Q24.3438,353.5 24.9688,352.9219 L24.9688,355.6406 Z " fill="#000000"/><text fill="#000000" font-family="sans-serif" font-size="14" lengthAdjust="spacing" textLength="151.8125" x="36" y="354.8467">SetPointsPlayerGreen</text><line style="stroke:#181818;stroke-width:0.5;" x1="8" x2="189.8125" y1="366" y2="366"/><line style="stroke:#181818;stroke-width:0.5;" x1="8" x2="189.8125" y1="374" y2="374"/></g><!--class SetPointsPlayerRed--><g id="elem_SetPointsPlayerRed"><rect codeLine="8" fill="#F1F1F1" height="48" id="SetPointsPlayerRed" rx="2.5" ry="2.5" style="stroke:#181818;stroke-width:0.5;" width="168.3359" x="226" y="334"/><ellipse cx="241" cy="350" fill="#ADD1B2" rx="11" ry="11" style="stroke:#181818;stroke-width:1;"/><path d="M243.9688,355.6406 Q243.3906,355.9375 242.75,356.0781 Q242.1094,356.2344 241.4063,356.2344 Q238.9063,356.2344 237.5781,354.5938 Q236.2656,352.9375 236.2656,349.8125 Q236.2656,346.6875 237.5781,345.0313 Q238.9063,343.375 241.4063,343.375 Q242.1094,343.375 242.75,343.5313 Q243.4063,343.6875 243.9688,343.9844 L243.9688,346.7031 Q243.3438,346.125 242.75,345.8594 Q242.1563,345.5781 241.5313,345.5781 Q240.1875,345.5781 239.5,346.6563 Q238.8125,347.7188 238.8125,349.8125 Q238.8125,351.9063 239.5,352.9844 Q240.1875,354.0469 241.5313,354.0469 Q242.1563,354.0469 242.75,353.7813 Q243.3438,353.5 243.9688,352.9219 L243.9688,355.6406 Z " fill="#000000"/><text fill="#000000" font-family="sans-serif" font-size="14" lengthAdjust="spacing" textLength="136.3359" x="255" y="354.8467">SetPointsPlayerRed</text><line style="stroke:#181818;stroke-width:0.5;" x1="227" x2="393.3359" y1="366" y2="366"/><line style="stroke:#181818;stroke-width:0.5;" x1="227" x2="393.3359" y1="374" y2="374"/></g><!--class GamePointsPlayer--><g id="elem_GamePointsPlayer"><rect codeLine="9" fill="#F1F1F1" height="48" id="GamePointsPlayer" rx="2.5" ry="2.5" style="stroke:#181818;stroke-width:0.5;" width="159.7979" x="1058" y="225"/><ellipse cx="1073" cy="241" fill="#ADD1B2" rx="11" ry="11" style="stroke:#181818;stroke-width:1;"/><path d="M1075.9688,246.6406 Q1075.3906,246.9375 1074.75,247.0781 Q1074.1094,247.2344 1073.4063,247.2344 Q1070.9063,247.2344 1069.5781,245.5938 Q1068.2656,243.9375 1068.2656,240.8125 Q1068.2656,237.6875 1069.5781,236.0313 Q1070.9063,234.375 1073.4063,234.375 Q1074.1094,234.375 1074.75,234.5313 Q1075.4063,234.6875 1075.9688,234.9844 L1075.9688,237.7031 Q1075.3438,237.125 1074.75,236.8594 Q1074.1563,236.5781 1073.5313,236.5781 Q1072.1875,236.5781 1071.5,237.6563 Q1070.8125,238.7188 1070.8125,240.8125 Q1070.8125,242.9063 1071.5,243.9844 Q1072.1875,245.0469 1073.5313,245.0469 Q1074.1563,245.0469 1074.75,244.7813 Q1075.3438,244.5 1075.9688,243.9219 L1075.9688,246.6406 Z " fill="#000000"/><text fill="#000000" font-family="sans-serif" font-size="14" lengthAdjust="spacing" textLength="127.7979" x="1087" y="245.8467">GamePointsPlayer</text><line style="stroke:#181818;stroke-width:0.5;" x1="1059" x2="1216.7979" y1="257" y2="257"/><line style="stroke:#181818;stroke-width:0.5;" x1="1059" x2="1216.7979" y1="265" y2="265"/></g><!--class GamePointsPlayerGreen--><g id="elem_GamePointsPlayerGreen"><rect codeLine="10" fill="#F1F1F1" height="48" id="GamePointsPlayerGreen" rx="2.5" ry="2.5" style="stroke:#181818;stroke-width:0.5;" width="202.502" x="1175.5" y="334"/><ellipse cx="1190.5" cy="350" fill="#ADD1B2" rx="11" ry="11" style="stroke:#181818;stroke-width:1;"/><path d="M1193.4688,355.6406 Q1192.8906,355.9375 1192.25,356.0781 Q1191.6094,356.2344 1190.9063,356.2344 Q1188.4063,356.2344 1187.0781,354.5938 Q1185.7656,352.9375 1185.7656,349.8125 Q1185.7656,346.6875 1187.0781,345.0313 Q1188.4063,343.375 1190.9063,343.375 Q1191.6094,343.375 1192.25,343.5313 Q1192.9063,343.6875 1193.4688,343.9844 L1193.4688,346.7031 Q1192.8438,346.125 1192.25,345.8594 Q1191.6563,345.5781 1191.0313,345.5781 Q1189.6875,345.5781 1189,346.6563 Q1188.3125,347.7188 1188.3125,349.8125 Q1188.3125,351.9063 1189,352.9844 Q1189.6875,354.0469 1191.0313,354.0469 Q1191.6563,354.0469 1192.25,353.7813 Q1192.8438,353.5 1193.4688,352.9219 L1193.4688,355.6406 Z " fill="#000000"/><text fill="#000000" font-family="sans-serif" font-size="14" lengthAdjust="spacing" textLength="170.502" x="1204.5" y="354.8467">GamePointsPlayerGreen</text><line style="stroke:#181818;stroke-width:0.5;" x1="1176.5" x2="1377.002" y1="366" y2="366"/><line style="stroke:#181818;stroke-width:0.5;" x1="1176.5" x2="1377.002" y1="374" y2="374"/></g><!--class GamePointsPlayerRed--><g id="elem_GamePointsPlayerRed"><rect codeLine="11" fill="#F1F1F1" height="48" id="GamePointsPlayerRed" rx="2.5" ry="2.5" style="stroke:#181818;stroke-width:0.5;" width="187.0254" x="1413.5" y="334"/><ellipse cx="1428.5" cy="350" fill="#ADD1B2" rx="11" ry="11" style="stroke:#181818;stroke-width:1;"/><path d="M1431.4688,355.6406 Q1430.8906,355.9375 1430.25,356.0781 Q1429.6094,356.2344 1428.9063,356.2344 Q1426.4063,356.2344 1425.0781,354.5938 Q1423.7656,352.9375 1423.7656,349.8125 Q1423.7656,346.6875 1425.0781,345.0313 Q1426.4063,343.375 1428.9063,343.375 Q1429.6094,343.375 1430.25,343.5313 Q1430.9063,343.6875 1431.4688,343.9844 L1431.4688,346.7031 Q1430.8438,346.125 1430.25,345.8594 Q1429.6563,345.5781 1429.0313,345.5781 Q1427.6875,345.5781 1427,346.6563 Q1426.3125,347.7188 1426.3125,349.8125 Q1426.3125,351.9063 1427,352.9844 Q1427.6875,354.0469 1429.0313,354.0469 Q1429.6563,354.0469 1430.25,353.7813 Q1430.8438,353.5 1431.4688,352.9219 L1431.4688,355.6406 Z " fill="#000000"/><text fill="#000000" font-family="sans-serif" font-size="14" lengthAdjust="spacing" textLength="155.0254" x="1442.5" y="354.8467">GamePointsPlayerRed</text><line style="stroke:#181818;stroke-width:0.5;" x1="1414.5" x2="1599.5254" y1="366" y2="366"/><line style="stroke:#181818;stroke-width:0.5;" x1="1414.5" x2="1599.5254" y1="374" y2="374"/></g><!--class GameScore--><g id="elem_GameScore"><rect codeLine="13" fill="#F1F1F1" height="48" id="GameScore" rx="2.5" ry="2.5" style="stroke:#181818;stroke-width:0.5;" width="113.1973" x="1027.5" y="334"/><ellipse cx="1042.5" cy="350" fill="#ADD1B2" rx="11" ry="11" style="stroke:#181818;stroke-width:1;"/><path d="M1045.4688,355.6406 Q1044.8906,355.9375 1044.25,356.0781 Q1043.6094,356.2344 1042.9063,356.2344 Q1040.4063,356.2344 1039.0781,354.5938 Q1037.7656,352.9375 1037.7656,349.8125 Q1037.7656,346.6875 1039.0781,345.0313 Q1040.4063,343.375 1042.9063,343.375 Q1043.6094,343.375 1044.25,343.5313 Q1044.9063,343.6875 1045.4688,343.9844 L1045.4688,346.7031 Q1044.8438,346.125 1044.25,345.8594 Q1043.6563,345.5781 1043.0313,345.5781 Q1041.6875,345.5781 1041,346.6563 Q1040.3125,347.7188 1040.3125,349.8125 Q1040.3125,351.9063 1041,352.9844 Q1041.6875,354.0469 1043.0313,354.0469 Q1043.6563,354.0469 1044.25,353.7813 Q1044.8438,353.5 1045.4688,352.9219 L1045.4688,355.6406 Z " fill="#000000"/><text fill="#000000" font-family="sans-serif" font-size="14" lengthAdjust="spacing" textLength="81.1973" x="1056.5" y="354.8467">GameScore</text><line style="stroke:#181818;stroke-width:0.5;" x1="1028.5" x2="1139.6973" y1="366" y2="366"/><line style="stroke:#181818;stroke-width:0.5;" x1="1028.5" x2="1139.6973" y1="374" y2="374"/></g><!--class Score0--><g id="elem_Score0"><rect codeLine="14" fill="#F1F1F1" height="48" id="Score0" rx="2.5" ry="2.5" style="stroke:#181818;stroke-width:0.5;" width="80.4258" x="1307" y="443"/><ellipse cx="1322" cy="459" fill="#ADD1B2" rx="11" ry="11" style="stroke:#181818;stroke-width:1;"/><path d="M1324.9688,464.6406 Q1324.3906,464.9375 1323.75,465.0781 Q1323.1094,465.2344 1322.4063,465.2344 Q1319.9063,465.2344 1318.5781,463.5938 Q1317.2656,461.9375 1317.2656,458.8125 Q1317.2656,455.6875 1318.5781,454.0313 Q1319.9063,452.375 1322.4063,452.375 Q1323.1094,452.375 1323.75,452.5313 Q1324.4063,452.6875 1324.9688,452.9844 L1324.9688,455.7031 Q1324.3438,455.125 1323.75,454.8594 Q1323.1563,454.5781 1322.5313,454.5781 Q1321.1875,454.5781 1320.5,455.6563 Q1319.8125,456.7188 1319.8125,458.8125 Q1319.8125,460.9063 1320.5,461.9844 Q1321.1875,463.0469 1322.5313,463.0469 Q1323.1563,463.0469 1323.75,462.7813 Q1324.3438,462.5 1324.9688,461.9219 L1324.9688,464.6406 Z " fill="#000000"/><text fill="#000000" font-family="sans-serif" font-size="14" lengthAdjust="spacing" textLength="48.4258" x="1336" y="463.8467">Score0</text><line style="stroke:#181818;stroke-width:0.5;" x1="1308" x2="1386.4258" y1="475" y2="475"/><line style="stroke:#181818;stroke-width:0.5;" x1="1308" x2="1386.4258" y1="483" y2="483"/></g><!--class Score15--><g id="elem_Score15"><rect codeLine="15" fill="#F1F1F1" height="48" id="Score15" rx="2.5" ry="2.5" style="stroke:#181818;stroke-width:0.5;" width="89.333" x="791.5" y="443"/><ellipse cx="806.5" cy="459" fill="#ADD1B2" rx="11" ry="11" style="stroke:#181818;stroke-width:1;"/><path d="M809.4688,464.6406 Q808.8906,464.9375 808.25,465.0781 Q807.6094,465.2344 806.9063,465.2344 Q804.4063,465.2344 803.0781,463.5938 Q801.7656,461.9375 801.7656,458.8125 Q801.7656,455.6875 803.0781,454.0313 Q804.4063,452.375 806.9063,452.375 Q807.6094,452.375 808.25,452.5313 Q808.9063,452.6875 809.4688,452.9844 L809.4688,455.7031 Q808.8438,455.125 808.25,454.8594 Q807.6563,454.5781 807.0313,454.5781 Q805.6875,454.5781 805,455.6563 Q804.3125,456.7188 804.3125,458.8125 Q804.3125,460.9063 805,461.9844 Q805.6875,463.0469 807.0313,463.0469 Q807.6563,463.0469 808.25,462.7813 Q808.8438,462.5 809.4688,461.9219 L809.4688,464.6406 Z " fill="#000000"/><text fill="#000000" font-family="sans-serif" font-size="14" lengthAdjust="spacing" textLength="57.333" x="820.5" y="463.8467">Score15</text><line style="stroke:#181818;stroke-width:0.5;" x1="792.5" x2="879.833" y1="475" y2="475"/><line style="stroke:#181818;stroke-width:0.5;" x1="792.5" x2="879.833" y1="483" y2="483"/></g><!--class Score30--><g id="elem_Score30"><rect codeLine="16" fill="#F1F1F1" height="48" id="Score30" rx="2.5" ry="2.5" style="stroke:#181818;stroke-width:0.5;" width="89.333" x="915.5" y="443"/><ellipse cx="930.5" cy="459" fill="#ADD1B2" rx="11" ry="11" style="stroke:#181818;stroke-width:1;"/><path d="M933.4688,464.6406 Q932.8906,464.9375 932.25,465.0781 Q931.6094,465.2344 930.9063,465.2344 Q928.4063,465.2344 927.0781,463.5938 Q925.7656,461.9375 925.7656,458.8125 Q925.7656,455.6875 927.0781,454.0313 Q928.4063,452.375 930.9063,452.375 Q931.6094,452.375 932.25,452.5313 Q932.9063,452.6875 933.4688,452.9844 L933.4688,455.7031 Q932.8438,455.125 932.25,454.8594 Q931.6563,454.5781 931.0313,454.5781 Q929.6875,454.5781 929,455.6563 Q928.3125,456.7188 928.3125,458.8125 Q928.3125,460.9063 929,461.9844 Q929.6875,463.0469 931.0313,463.0469 Q931.6563,463.0469 932.25,462.7813 Q932.8438,462.5 933.4688,461.9219 L933.4688,464.6406 Z " fill="#000000"/><text fill="#000000" font-family="sans-serif" font-size="14" lengthAdjust="spacing" textLength="57.333" x="944.5" y="463.8467">Score30</text><line style="stroke:#181818;stroke-width:0.5;" x1="916.5" x2="1003.833" y1="475" y2="475"/><line style="stroke:#181818;stroke-width:0.5;" x1="916.5" x2="1003.833" y1="483" y2="483"/></g><!--class Score40--><g id="elem_Score40"><rect codeLine="17" fill="#F1F1F1" height="48" id="Score40" rx="2.5" ry="2.5" style="stroke:#181818;stroke-width:0.5;" width="89.333" x="1039.5" y="443"/><ellipse cx="1054.5" cy="459" fill="#ADD1B2" rx="11" ry="11" style="stroke:#181818;stroke-width:1;"/><path d="M1057.4688,464.6406 Q1056.8906,464.9375 1056.25,465.0781 Q1055.6094,465.2344 1054.9063,465.2344 Q1052.4063,465.2344 1051.0781,463.5938 Q1049.7656,461.9375 1049.7656,458.8125 Q1049.7656,455.6875 1051.0781,454.0313 Q1052.4063,452.375 1054.9063,452.375 Q1055.6094,452.375 1056.25,452.5313 Q1056.9063,452.6875 1057.4688,452.9844 L1057.4688,455.7031 Q1056.8438,455.125 1056.25,454.8594 Q1055.6563,454.5781 1055.0313,454.5781 Q1053.6875,454.5781 1053,455.6563 Q1052.3125,456.7188 1052.3125,458.8125 Q1052.3125,460.9063 1053,461.9844 Q1053.6875,463.0469 1055.0313,463.0469 Q1055.6563,463.0469 1056.25,462.7813 Q1056.8438,462.5 1057.4688,461.9219 L1057.4688,464.6406 Z " fill="#000000"/><text fill="#000000" font-family="sans-serif" font-size="14" lengthAdjust="spacing" textLength="57.333" x="1068.5" y="463.8467">Score40</text><line style="stroke:#181818;stroke-width:0.5;" x1="1040.5" x2="1127.833" y1="475" y2="475"/><line style="stroke:#181818;stroke-width:0.5;" x1="1040.5" x2="1127.833" y1="483" y2="483"/></g><!--class Advantage--><g id="elem_Advantage"><rect codeLine="18" fill="#F1F1F1" height="48" id="Advantage" rx="2.5" ry="2.5" style="stroke:#181818;stroke-width:0.5;" width="107.7695" x="1164" y="443"/><ellipse cx="1179" cy="459" fill="#ADD1B2" rx="11" ry="11" style="stroke:#181818;stroke-width:1;"/><path d="M1181.9688,464.6406 Q1181.3906,464.9375 1180.75,465.0781 Q1180.1094,465.2344 1179.4063,465.2344 Q1176.9063,465.2344 1175.5781,463.5938 Q1174.2656,461.9375 1174.2656,458.8125 Q1174.2656,455.6875 1175.5781,454.0313 Q1176.9063,452.375 1179.4063,452.375 Q1180.1094,452.375 1180.75,452.5313 Q1181.4063,452.6875 1181.9688,452.9844 L1181.9688,455.7031 Q1181.3438,455.125 1180.75,454.8594 Q1180.1563,454.5781 1179.5313,454.5781 Q1178.1875,454.5781 1177.5,455.6563 Q1176.8125,456.7188 1176.8125,458.8125 Q1176.8125,460.9063 1177.5,461.9844 Q1178.1875,463.0469 1179.5313,463.0469 Q1180.1563,463.0469 1180.75,462.7813 Q1181.3438,462.5 1181.9688,461.9219 L1181.9688,464.6406 Z " fill="#000000"/><text fill="#000000" font-family="sans-serif" font-size="14" lengthAdjust="spacing" textLength="75.7695" x="1193" y="463.8467">Advantage</text><line style="stroke:#181818;stroke-width:0.5;" x1="1165" x2="1270.7695" y1="475" y2="475"/><line style="stroke:#181818;stroke-width:0.5;" x1="1165" x2="1270.7695" y1="483" y2="483"/></g><!--class SetScore--><g id="elem_SetScore"><rect codeLine="20" fill="#F1F1F1" height="48" id="SetScore" rx="2.5" ry="2.5" style="stroke:#181818;stroke-width:0.5;" width="94.5078" x="429.5" y="334"/><ellipse cx="444.5" cy="350" fill="#ADD1B2" rx="11" ry="11" style="stroke:#181818;stroke-width:1;"/><path d="M447.4688,355.6406 Q446.8906,355.9375 446.25,356.0781 Q445.6094,356.2344 444.9063,356.2344 Q442.4063,356.2344 441.0781,354.5938 Q439.7656,352.9375 439.7656,349.8125 Q439.7656,346.6875 441.0781,345.0313 Q442.4063,343.375 444.9063,343.375 Q445.6094,343.375 446.25,343.5313 Q446.9063,343.6875 447.4688,343.9844 L447.4688,346.7031 Q446.8438,346.125 446.25,345.8594 Q445.6563,345.5781 445.0313,345.5781 Q443.6875,345.5781 443,346.6563 Q442.3125,347.7188 442.3125,349.8125 Q442.3125,351.9063 443,352.9844 Q443.6875,354.0469 445.0313,354.0469 Q445.6563,354.0469 446.25,353.7813 Q446.8438,353.5 447.4688,352.9219 L447.4688,355.6406 Z " fill="#000000"/><text fill="#000000" font-family="sans-serif" font-size="14" lengthAdjust="spacing" textLength="62.5078" x="458.5" y="354.8467">SetScore</text><line style="stroke:#181818;stroke-width:0.5;" x1="430.5" x2="523.0078" y1="366" y2="366"/><line style="stroke:#181818;stroke-width:0.5;" x1="430.5" x2="523.0078" y1="374" y2="374"/></g><!--class SetScore1--><g id="elem_SetScore1"><rect codeLine="21" fill="#F1F1F1" height="48" id="SetScore1" rx="2.5" ry="2.5" style="stroke:#181818;stroke-width:0.5;" width="103.415" x="510.5" y="443"/><ellipse cx="525.5" cy="459" fill="#ADD1B2" rx="11" ry="11" style="stroke:#181818;stroke-width:1;"/><path d="M528.4688,464.6406 Q527.8906,464.9375 527.25,465.0781 Q526.6094,465.2344 525.9063,465.2344 Q523.4063,465.2344 522.0781,463.5938 Q520.7656,461.9375 520.7656,458.8125 Q520.7656,455.6875 522.0781,454.0313 Q523.4063,452.375 525.9063,452.375 Q526.6094,452.375 527.25,452.5313 Q527.9063,452.6875 528.4688,452.9844 L528.4688,455.7031 Q527.8438,455.125 527.25,454.8594 Q526.6563,454.5781 526.0313,454.5781 Q524.6875,454.5781 524,455.6563 Q523.3125,456.7188 523.3125,458.8125 Q523.3125,460.9063 524,461.9844 Q524.6875,463.0469 526.0313,463.0469 Q526.6563,463.0469 527.25,462.7813 Q527.8438,462.5 528.4688,461.9219 L528.4688,464.6406 Z " fill="#000000"/><text fill="#000000" font-family="sans-serif" font-size="14" lengthAdjust="spacing" textLength="71.415" x="539.5" y="463.8467">SetScore1</text><line style="stroke:#181818;stroke-width:0.5;" x1="511.5" x2="612.915" y1="475" y2="475"/><line style="stroke:#181818;stroke-width:0.5;" x1="511.5" x2="612.915" y1="483" y2="483"/></g><!--class SetScore7--><g id="elem_SetScore7"><rect codeLine="22" fill="#F1F1F1" height="48" id="SetScore7" rx="2.5" ry="2.5" style="stroke:#181818;stroke-width:0.5;" width="103.415" x="298.5" y="443"/><ellipse cx="313.5" cy="459" fill="#ADD1B2" rx="11" ry="11" style="stroke:#181818;stroke-width:1;"/><path d="M316.4688,464.6406 Q315.8906,464.9375 315.25,465.0781 Q314.6094,465.2344 313.9063,465.2344 Q311.4063,465.2344 310.0781,463.5938 Q308.7656,461.9375 308.7656,458.8125 Q308.7656,455.6875 310.0781,454.0313 Q311.4063,452.375 313.9063,452.375 Q314.6094,452.375 315.25,452.5313 Q315.9063,452.6875 316.4688,452.9844 L316.4688,455.7031 Q315.8438,455.125 315.25,454.8594 Q314.6563,454.5781 314.0313,454.5781 Q312.6875,454.5781 312,455.6563 Q311.3125,456.7188 311.3125,458.8125 Q311.3125,460.9063 312,461.9844 Q312.6875,463.0469 314.0313,463.0469 Q314.6563,463.0469 315.25,462.7813 Q315.8438,462.5 316.4688,461.9219 L316.4688,464.6406 Z " fill="#000000"/><text fill="#000000" font-family="sans-serif" font-size="14" lengthAdjust="spacing" textLength="71.415" x="327.5" y="463.8467">SetScore7</text><line style="stroke:#181818;stroke-width:0.5;" x1="299.5" x2="400.915" y1="475" y2="475"/><line style="stroke:#181818;stroke-width:0.5;" x1="299.5" x2="400.915" y1="483" y2="483"/></g><!--class Player--><g id="elem_Player"><rect codeLine="24" fill="#F1F1F1" height="48" id="Player" rx="2.5" ry="2.5" style="stroke:#181818;stroke-width:0.5;" width="75.5654" x="716" y="116"/><ellipse cx="731" cy="132" fill="#ADD1B2" rx="11" ry="11" style="stroke:#181818;stroke-width:1;"/><path d="M733.9688,137.6406 Q733.3906,137.9375 732.75,138.0781 Q732.1094,138.2344 731.4063,138.2344 Q728.9063,138.2344 727.5781,136.5938 Q726.2656,134.9375 726.2656,131.8125 Q726.2656,128.6875 727.5781,127.0313 Q728.9063,125.375 731.4063,125.375 Q732.1094,125.375 732.75,125.5313 Q733.4063,125.6875 733.9688,125.9844 L733.9688,128.7031 Q733.3438,128.125 732.75,127.8594 Q732.1563,127.5781 731.5313,127.5781 Q730.1875,127.5781 729.5,128.6563 Q728.8125,129.7188 728.8125,131.8125 Q728.8125,133.9063 729.5,134.9844 Q730.1875,136.0469 731.5313,136.0469 Q732.1563,136.0469 732.75,135.7813 Q733.3438,135.5 733.9688,134.9219 L733.9688,137.6406 Z " fill="#000000"/><text fill="#000000" font-family="sans-serif" font-size="14" lengthAdjust="spacing" textLength="43.5654" x="745" y="136.8467">Player</text><line style="stroke:#181818;stroke-width:0.5;" x1="717" x2="790.5654" y1="148" y2="148"/><line style="stroke:#181818;stroke-width:0.5;" x1="717" x2="790.5654" y1="156" y2="156"/></g><!--class GamePointsPlayerOnTieBreak--><g id="elem_GamePointsPlayerOnTieBreak"><rect fill="#F1F1F1" height="48" id="GamePointsPlayerOnTieBreak" rx="2.5" ry="2.5" style="stroke:#181818;stroke-width:0.5;" width="241.4053" x="781.5" y="225"/><ellipse cx="796.5" cy="241" fill="#ADD1B2" rx="11" ry="11" style="stroke:#181818;stroke-width:1;"/><path d="M799.4688,246.6406 Q798.8906,246.9375 798.25,247.0781 Q797.6094,247.2344 796.9063,247.2344 Q794.4063,247.2344 793.0781,245.5938 Q791.7656,243.9375 791.7656,240.8125 Q791.7656,237.6875 793.0781,236.0313 Q794.4063,234.375 796.9063,234.375 Q797.6094,234.375 798.25,234.5313 Q798.9063,234.6875 799.4688,234.9844 L799.4688,237.7031 Q798.8438,237.125 798.25,236.8594 Q797.6563,236.5781 797.0313,236.5781 Q795.6875,236.5781 795,237.6563 Q794.3125,238.7188 794.3125,240.8125 Q794.3125,242.9063 795,243.9844 Q795.6875,245.0469 797.0313,245.0469 Q797.6563,245.0469 798.25,244.7813 Q798.8438,244.5 799.4688,243.9219 L799.4688,246.6406 Z " fill="#000000"/><text fill="#000000" font-family="sans-serif" font-size="14" lengthAdjust="spacing" textLength="209.4053" x="810.5" y="245.8467">GamePointsPlayerOnTieBreak</text><line style="stroke:#181818;stroke-width:0.5;" x1="782.5" x2="1021.9053" y1="257" y2="257"/><line style="stroke:#181818;stroke-width:0.5;" x1="782.5" x2="1021.9053" y1="265" y2="265"/></g><!--class ScoreboardServiceGreen--><g id="elem_ScoreboardServiceGreen"><rect fill="#F1F1F1" height="48" id="ScoreboardServiceGreen" rx="2.5" ry="2.5" style="stroke:#181818;stroke-width:0.5;" width="206.6377" x="559.5" y="334"/><ellipse cx="574.5" cy="350" fill="#ADD1B2" rx="11" ry="11" style="stroke:#181818;stroke-width:1;"/><path d="M577.4688,355.6406 Q576.8906,355.9375 576.25,356.0781 Q575.6094,356.2344 574.9063,356.2344 Q572.4063,356.2344 571.0781,354.5938 Q569.7656,352.9375 569.7656,349.8125 Q569.7656,346.6875 571.0781,345.0313 Q572.4063,343.375 574.9063,343.375 Q575.6094,343.375 576.25,343.5313 Q576.9063,343.6875 577.4688,343.9844 L577.4688,346.7031 Q576.8438,346.125 576.25,345.8594 Q575.6563,345.5781 575.0313,345.5781 Q573.6875,345.5781 573,346.6563 Q572.3125,347.7188 572.3125,349.8125 Q572.3125,351.9063 573,352.9844 Q573.6875,354.0469 575.0313,354.0469 Q575.6563,354.0469 576.25,353.7813 Q576.8438,353.5 577.4688,352.9219 L577.4688,355.6406 Z " fill="#000000"/><text fill="#000000" font-family="sans-serif" font-size="14" lengthAdjust="spacing" textLength="174.6377" x="588.5" y="354.8467">ScoreboardServiceGreen</text><line style="stroke:#181818;stroke-width:0.5;" x1="560.5" x2="765.1377" y1="366" y2="366"/><line style="stroke:#181818;stroke-width:0.5;" x1="560.5" x2="765.1377" y1="374" y2="374"/></g><!--class ScoreboardServiceRed--><g id="elem_ScoreboardServiceRed"><rect fill="#F1F1F1" height="48" id="ScoreboardServiceRed" rx="2.5" ry="2.5" style="stroke:#181818;stroke-width:0.5;" width="191.1611" x="801.5" y="334"/><ellipse cx="816.5" cy="350" fill="#ADD1B2" rx="11" ry="11" style="stroke:#181818;stroke-width:1;"/><path d="M819.4688,355.6406 Q818.8906,355.9375 818.25,356.0781 Q817.6094,356.2344 816.9063,356.2344 Q814.4063,356.2344 813.0781,354.5938 Q811.7656,352.9375 811.7656,349.8125 Q811.7656,346.6875 813.0781,345.0313 Q814.4063,343.375 816.9063,343.375 Q817.6094,343.375 818.25,343.5313 Q818.9063,343.6875 819.4688,343.9844 L819.4688,346.7031 Q818.8438,346.125 818.25,345.8594 Q817.6563,345.5781 817.0313,345.5781 Q815.6875,345.5781 815,346.6563 Q814.3125,347.7188 814.3125,349.8125 Q814.3125,351.9063 815,352.9844 Q815.6875,354.0469 817.0313,354.0469 Q817.6563,354.0469 818.25,353.7813 Q818.8438,353.5 819.4688,352.9219 L819.4688,355.6406 Z " fill="#000000"/><text fill="#000000" font-family="sans-serif" font-size="14" lengthAdjust="spacing" textLength="159.1611" x="830.5" y="354.8467">ScoreboardServiceRed</text><line style="stroke:#181818;stroke-width:0.5;" x1="802.5" x2="991.6611" y1="366" y2="366"/><line style="stroke:#181818;stroke-width:0.5;" x1="802.5" x2="991.6611" y1="374" y2="374"/></g><!--link Scoreboard to ScoreboardSet--><g id="link_Scoreboard_ScoreboardSet"><path codeLine="26" d="M623.8111,62.6044 C600.8311,80.5444 583.3579,94.1958 560.3979,112.1358 " fill="none" id="Scoreboard-ScoreboardSet" style="stroke:#181818;stroke-width:1;"/><polygon fill="#181818" points="633.27,55.22,626.0791,55.7592,623.8111,62.6044,631.002,62.0652,633.27,55.22" style="stroke:#181818;stroke-width:1;"/><polygon fill="#181818" points="555.67,115.83,565.2246,113.4407,559.6099,112.7515,560.2991,107.1368,555.67,115.83" style="stroke:#181818;stroke-width:1;"/><text fill="#000000" font-family="sans-serif" font-size="13" lengthAdjust="spacing" textLength="21.2329" x="539.5889" y="104.7985">3-5</text></g><!--link ScoreboardSet to SetPointsPlayer--><g id="link_ScoreboardSet_SetPointsPlayer"><path codeLine="27" d="M510.0664,175.09 C501.6764,193.03 497.7493,201.4538 489.3693,219.3938 " fill="none" id="ScoreboardSet-SetPointsPlayer" style="stroke:#181818;stroke-width:1;"/><polygon fill="#181818" points="515.15,164.22,508.9849,167.9605,510.0664,175.09,516.2315,171.3495,515.15,164.22" style="stroke:#181818;stroke-width:1;"/><polygon fill="#181818" points="486.83,224.83,494.2631,218.3686,488.9461,220.2999,487.0148,214.9829,486.83,224.83" style="stroke:#181818;stroke-width:1;"/><text fill="#000000" font-family="sans-serif" font-size="13" lengthAdjust="spacing" textLength="8.271" x="480.601" y="213.7985">2</text></g><!--reverse link SetPointsPlayer to SetPointsPlayerGreen--><g id="link_SetPointsPlayer_SetPointsPlayerGreen"><path codeLine="28" d="M387.7738,275.0442 C323.7838,293.2042 247.01,314.99 180.06,333.99 " fill="none" id="SetPointsPlayer-backto-SetPointsPlayerGreen" style="stroke:#181818;stroke-width:1;"/><polygon fill="none" points="405.09,270.13,386.1357,269.2722,389.4119,280.8163,405.09,270.13" style="stroke:#181818;stroke-width:1;"/></g><!--reverse link SetPointsPlayer to SetPointsPlayerRed--><g id="link_SetPointsPlayer_SetPointsPlayerRed"><path codeLine="29" d="M424.8494,282.9701 C397.0094,300.9101 373.78,315.89 345.95,333.83 " fill="none" id="SetPointsPlayer-backto-SetPointsPlayerRed" style="stroke:#181818;stroke-width:1;"/><polygon fill="none" points="439.98,273.22,421.5994,277.9266,428.0994,288.0136,439.98,273.22" style="stroke:#181818;stroke-width:1;"/></g><!--link Scoreboard to ScoreboardGame--><g id="link_Scoreboard_ScoreboardGame"><path codeLine="31" d="M725.9675,59.9596 C766.5075,77.9596 806.0962,95.5353 846.6162,113.5253 " fill="none" id="Scoreboard-ScoreboardGame" style="stroke:#181818;stroke-width:1;"/><polygon fill="#181818" points="715,55.09,718.8605,61.1807,725.9675,59.9596,722.107,53.869,715,55.09" style="stroke:#181818;stroke-width:1;"/><polygon fill="#181818" points="852.1,115.96,845.4974,108.6521,847.5302,113.9311,842.2511,115.9638,852.1,115.96" style="stroke:#181818;stroke-width:1;"/></g><!--link ScoreboardGame to GamePointsPlayer--><g id="link_ScoreboardGame_GamePointsPlayer"><path codeLine="32" d="M965.403,169.0807 C1004.763,187.0807 1042.8035,204.4748 1082.1435,222.4648 " fill="none" id="ScoreboardGame-GamePointsPlayer" style="stroke:#181818;stroke-width:1;"/><polygon fill="none" points="954.49,164.09,958.2829,170.223,965.403,169.0807,961.6101,162.9477,954.49,164.09" style="stroke:#181818;stroke-width:1;"/><polygon fill="#181818" points="1087.6,224.96,1081.0787,217.5794,1083.0529,222.8806,1077.7517,224.8548,1087.6,224.96" style="stroke:#181818;stroke-width:1;"/><text fill="#000000" font-family="sans-serif" font-size="13" lengthAdjust="spacing" textLength="8.271" x="1065.7206" y="213.9618">2</text></g><!--reverse link GamePointsPlayer to GamePointsPlayerGreen--><g id="link_GamePointsPlayer_GamePointsPlayerGreen"><path codeLine="33" d="M1182.4268,284.1954 C1205.7468,302.1354 1223.6,315.89 1246.9,333.83 " fill="none" id="GamePointsPlayer-backto-GamePointsPlayerGreen" style="stroke:#181818;stroke-width:1;"/><polygon fill="none" points="1168.16,273.22,1178.7683,288.951,1186.0852,279.4398,1168.16,273.22" style="stroke:#181818;stroke-width:1;"/></g><!--reverse link GamePointsPlayer to GamePointsPlayerRed--><g id="link_GamePointsPlayer_GamePointsPlayerRed"><path codeLine="34" d="M1234.898,278.1026 C1296.978,296.1026 1365.49,315.97 1427.53,333.96 " fill="none" id="GamePointsPlayer-backto-GamePointsPlayerRed" style="stroke:#181818;stroke-width:1;"/><polygon fill="none" points="1217.61,273.09,1233.2271,283.8653,1236.5688,272.34,1217.61,273.09" style="stroke:#181818;stroke-width:1;"/></g><!--link GamePointsPlayer to GameScore--><g id="link_GamePointsPlayer_GameScore"><path codeLine="36" d="M1120.8752,283.9339 C1111.8252,301.8739 1107.4548,310.5342 1098.3948,328.4742 " fill="none" id="GamePointsPlayer-GameScore" style="stroke:#181818;stroke-width:1;"/><polygon fill="none" points="1126.28,273.22,1120.0063,276.7754,1120.8752,283.9339,1127.1489,280.3786,1126.28,273.22" style="stroke:#181818;stroke-width:1;"/><polygon fill="#181818" points="1095.69,333.83,1103.3176,327.5995,1097.944,329.3669,1096.1766,323.9932,1095.69,333.83" style="stroke:#181818;stroke-width:1;"/></g><!--reverse link GameScore to Score0--><g id="link_GameScore_Score0"><path codeLine="37" d="M1157.4139,388.871 C1207.4039,409.201 1262.29,431.53 1306.63,449.58 " fill="none" id="GameScore-backto-Score0" style="stroke:#181818;stroke-width:1;"/><polygon fill="none" points="1140.74,382.09,1155.1536,394.4289,1159.6742,383.313,1140.74,382.09" style="stroke:#181818;stroke-width:1;"/></g><!--reverse link GameScore to Score15--><g id="link_GameScore_Score15"><path codeLine="38" d="M1013.9626,389.2207 C969.2526,408.5107 922.76,428.57 880.7,446.71 " fill="none" id="GameScore-backto-Score15" style="stroke:#181818;stroke-width:1;"/><polygon fill="none" points="1030.49,382.09,1011.5858,383.7116,1016.3395,394.7298,1030.49,382.09" style="stroke:#181818;stroke-width:1;"/></g><!--reverse link GameScore to Score30--><g id="link_GameScore_Score30"><path codeLine="39" d="M1043.4595,393.9763 C1022.6595,411.9163 1007.64,424.89 986.85,442.83 " fill="none" id="GameScore-backto-Score30" style="stroke:#181818;stroke-width:1;"/><polygon fill="none" points="1057.09,382.22,1039.5408,389.4328,1047.3783,398.5198,1057.09,382.22" style="stroke:#181818;stroke-width:1;"/></g><!--reverse link GameScore to Score40--><g id="link_GameScore_Score40"><path codeLine="40" d="M1084,400.22 C1084,418.16 1084,424.89 1084,442.83 " fill="none" id="GameScore-backto-Score40" style="stroke:#181818;stroke-width:1;"/><polygon fill="none" points="1084,382.22,1078,400.22,1090,400.22,1084,382.22" style="stroke:#181818;stroke-width:1;"/></g><!--reverse link GameScore to Advantage--><g id="link_GameScore_Advantage"><path codeLine="41" d="M1127.1466,393.4508 C1149.6166,411.3908 1166.52,424.89 1188.98,442.83 " fill="none" id="GameScore-backto-Advantage" style="stroke:#181818;stroke-width:1;"/><polygon fill="none" points="1113.08,382.22,1123.403,398.1396,1130.8902,388.7619,1113.08,382.22" style="stroke:#181818;stroke-width:1;"/></g><!--link ScoreboardGame to GamePointsPlayerOnTieBreak--><g id="link_ScoreboardGame_GamePointsPlayerOnTieBreak"><path codeLine="43" d="M903.3426,176.2178 C903.0026,194.1578 902.8837,200.8911 902.5437,218.8311 " fill="none" id="ScoreboardGame-GamePointsPlayerOnTieBreak" style="stroke:#181818;stroke-width:1;"/><polygon fill="none" points="903.57,164.22,899.457,170.1431,903.3426,176.2178,907.4556,170.2947,903.57,164.22" style="stroke:#181818;stroke-width:1;"/><polygon fill="#181818" points="902.43,224.83,906.5998,215.9074,902.5247,219.8309,898.6013,215.7558,902.43,224.83" style="stroke:#181818;stroke-width:1;"/><text fill="#000000" font-family="sans-serif" font-size="13" lengthAdjust="spacing" textLength="8.271" x="893.498" y="213.7985">2</text></g><!--link SetPointsPlayer to SetScore--><g id="link_SetPointsPlayer_SetScore"><path codeLine="45" d="M476.327,285.2195 C476.487,303.1595 476.5665,309.8902 476.7265,327.8302 " fill="none" id="SetPointsPlayer-SetScore" style="stroke:#181818;stroke-width:1;"/><polygon fill="none" points="476.22,273.22,472.2737,279.2554,476.327,285.2195,480.2734,279.1841,476.22,273.22" style="stroke:#181818;stroke-width:1;"/><polygon fill="#181818" points="476.78,333.83,480.6996,324.7947,476.7354,328.8302,472.6999,324.866,476.78,333.83" style="stroke:#181818;stroke-width:1;"/></g><!--reverse link SetScore to SetScore1--><g id="link_SetScore_SetScore1"><path codeLine="46" d="M506.6404,396.3108 C520.9004,414.2508 529.34,424.89 543.59,442.83 " fill="none" id="SetScore-backto-SetScore1" style="stroke:#181818;stroke-width:1;"/><polygon fill="none" points="495.44,382.22,501.9435,400.0443,511.3373,392.5774,495.44,382.22" style="stroke:#181818;stroke-width:1;"/></g><!--reverse link SetScore to SetScore7--><g id="link_SetScore_SetScore7"><path codeLine="47" d="M435.6726,393.8156 C414.3726,411.7556 398.79,424.89 377.5,442.83 " fill="none" id="SetScore-backto-SetScore7" style="stroke:#181818;stroke-width:1;"/><polygon fill="none" points="449.44,382.22,431.8074,389.2265,439.5378,398.4048,449.44,382.22" style="stroke:#181818;stroke-width:1;"/></g><!--link SetScore7 to SetScore1--><g id="link_SetScore7_SetScore1"><path codeLine="48" d="M401.59,467 C434.56,467 477.16,467 510.18,467 " fill="none" id="SetScore7-SetScore1" style="stroke:#181818;stroke-width:1;stroke-dasharray:7.0,7.0;"/><text fill="#000000" font-family="sans-serif" font-size="13" lengthAdjust="spacing" textLength="72.5283" x="420" y="460.0669">from 1 to 7</text></g><!--link Scoreboard to ScoreboardService--><g id="link_Scoreboard_ScoreboardService"><path codeLine="50" d="M663.165,67.1199 C663.355,108.5799 663.6726,177.1401 663.8626,218.7201 " fill="none" id="Scoreboard-ScoreboardService" style="stroke:#181818;stroke-width:1;"/><polygon fill="#181818" points="663.11,55.12,659.1375,61.1383,663.165,67.1199,667.1375,61.1016,663.11,55.12" style="stroke:#181818;stroke-width:1;"/><polygon fill="#181818" points="663.89,224.72,667.8488,215.7018,663.8672,219.7201,659.8489,215.7384,663.89,224.72" style="stroke:#181818;stroke-width:1;"/><text fill="#000000" font-family="sans-serif" font-size="13" lengthAdjust="spacing" textLength="8.271" x="654.9293" y="214.0567">2</text></g><!--reverse link ScoreboardService to ScoreboardServiceGreen--><g id="link_ScoreboardService_ScoreboardServiceGreen"><path codeLine="51" d="M663.6195,291.2193 C663.4595,309.1593 663.38,315.89 663.22,333.83 " fill="none" id="ScoreboardService-backto-ScoreboardServiceGreen" style="stroke:#181818;stroke-width:1;"/><polygon fill="none" points="663.78,273.22,657.6197,291.1658,669.6192,291.2728,663.78,273.22" style="stroke:#181818;stroke-width:1;"/></g><!--reverse link ScoreboardService to ScoreboardServiceRed--><g id="link_ScoreboardService_ScoreboardServiceRed"><path codeLine="52" d="M730.6279,280.6013 C769.8279,298.6013 807.64,315.97 846.82,333.96 " fill="none" id="ScoreboardService-backto-ScoreboardServiceRed" style="stroke:#181818;stroke-width:1;"/><polygon fill="none" points="714.27,273.09,728.1241,286.0539,733.1317,275.1486,714.27,273.09" style="stroke:#181818;stroke-width:1;"/></g><!--link Player to GamePointsPlayer--><g id="link_Player_GamePointsPlayer"><path codeLine="54" d="M803.3495,162.2219 C808.9395,164.4319 803.5,162.16 809,164 C854.63,179.27 970.0166,207.826 1051.8666,227.526 " fill="none" id="Player-GamePointsPlayer" style="stroke:#181818;stroke-width:1;"/><polygon fill="none" points="792.19,157.81,796.2991,163.7358,803.3495,162.2219,799.2404,156.2961,792.19,157.81" style="stroke:#181818;stroke-width:1;"/><polygon fill="#181818" points="1057.7,228.93,1049.8859,222.935,1052.8388,227.76,1048.0139,230.7129,1057.7,228.93" style="stroke:#181818;stroke-width:1;"/></g><!--link Player to SetPointsPlayer--><g id="link_Player_SetPointsPlayer"><path codeLine="55" d="M704.731,159.9607 C658.331,177.8207 596.1897,201.7452 541.5897,222.7552 " fill="none" id="Player-SetPointsPlayer" style="stroke:#181818;stroke-width:1;"/><polygon fill="#181818" points="715.93,155.65,708.8936,154.0723,704.731,159.9607,711.7674,161.5383,715.93,155.65" style="stroke:#181818;stroke-width:1;"/><polygon fill="#181818" points="535.99,224.91,545.8261,225.411,540.6564,223.1144,542.9531,217.9447,535.99,224.91" style="stroke:#181818;stroke-width:1;"/><text fill="#000000" font-family="sans-serif" font-size="13" lengthAdjust="spacing" textLength="21.2329" x="527.6878" y="213.899">3-5</text></g><!--link Player to ScoreboardService--><g id="link_Player_ScoreboardService"><path codeLine="56" d="M740.7513,175.0761 C736.4013,185.1461 735.25,185.74 728,195 C719.38,206.02 712.7903,212.5583 702.1103,221.0783 " fill="none" id="Player-ScoreboardService" style="stroke:#181818;stroke-width:1;"/><polygon fill="#181818" points="745.51,164.06,739.4586,167.9818,740.7513,175.0761,746.8027,171.1543,745.51,164.06" style="stroke:#181818;stroke-width:1;"/><polygon fill="#181818" points="697.42,224.82,706.95,222.3343,701.3286,221.7019,701.961,216.0805,697.42,224.82" style="stroke:#181818;stroke-width:1;"/></g><!--link Player to GamePointsPlayerOnTieBreak--><g id="link_Player_GamePointsPlayerOnTieBreak"><path codeLine="57" d="M795.8368,171.2477 C820.6668,189.1877 840.2779,203.3743 865.0879,221.3143 " fill="none" id="Player-GamePointsPlayerOnTieBreak" style="stroke:#181818;stroke-width:1;"/><polygon fill="none" points="786.11,164.22,788.6308,170.9761,795.8368,171.2477,793.316,164.4916,786.11,164.22" style="stroke:#181818;stroke-width:1;"/><polygon fill="#181818" points="869.95,224.83,865.0007,216.315,865.8983,221.9002,860.3131,222.7978,869.95,224.83" style="stroke:#181818;stroke-width:1;"/></g><!--SRC=[XLJ1JiCm3BttAwmUaJBHTLKb3fNWiYCJumT2ww69ha5f64BYuzcWQPtOfKVxlJYstqlgLlSzx6jZySLesoHrbDYZOxcjFg50jETZZOa7qEtCiNFzhjLVQENirY9sClI4lfVhRKAfE4rhnTYr685-cwO3tD8WAsYK1zZ6H_VDMNTElz9vWx93c4LnwVd3BCcqGBXHge8qLqKQxJ-81jewPIkMbWlgurrzLqlSouBccAp3o0TX2CPtnsGJ1VEtBh99XupBo9Sk6lFPgOh8_ISqhK7oMJ43v7CdDW8mce93V4r3WzAg7hld8pvOr6z9BDHqS3JSQ3MYO8YKiqW6gnOFRZNv4-xWOCq9Cd06Ii6VwrHuz2mJcc-PJmt8lvHnTYMeFu3qzKGMfWnU_R_Yan8_]--></g></svg>